<svg width="22" height="22" viewBox="0 0 22 22" fill="none" xmlns="http://www.w3.org/2000/svg">
<path fill-rule="evenodd" clip-rule="evenodd" d="M11 1.95843C6.00648 1.95843 1.95843 6.00648 1.95843 11C1.95843 15.9935 6.00648 20.0416 11 20.0416C15.9935 20.0416 20.0416 15.9935 20.0416 11C20.0416 6.00648 15.9935 1.95843 11 1.95843ZM1 11C1 5.47715 5.47715 1 11 1C16.5228 1 21 5.47715 21 11C21 16.5228 16.5228 21 11 21C5.47715 21 1 16.5228 1 11Z" fill="#B41730"/>
<path fill-rule="evenodd" clip-rule="evenodd" d="M6.64648 7.35359L7.35359 6.64648L11 10.2929L14.6465 6.64648L15.3536 7.35359L11 11.7071L6.64648 7.35359Z" fill="#B41730"/>
<path fill-rule="evenodd" clip-rule="evenodd" d="M6.64648 11.7071L7.35359 11L11 14.6464L14.6465 11L15.3536 11.7071L11 16.0607L6.64648 11.7071Z" fill="#B41730"/>
</svg>
