<svg width="22" height="22" viewBox="0 0 22 22" fill="none" xmlns="http://www.w3.org/2000/svg">
<path fill-rule="evenodd" clip-rule="evenodd" d="M11 20.0416C15.9935 20.0416 20.0416 15.9935 20.0416 11C20.0416 6.00648 15.9935 1.95843 11 1.95843C6.00648 1.95843 1.95843 6.00648 1.95843 11C1.95843 15.9935 6.00648 20.0416 11 20.0416ZM21 11C21 16.5228 16.5228 21 11 21C5.47715 21 0.999998 16.5228 0.999998 11C0.999998 5.47715 5.47715 1 11 1C16.5228 1 21 5.47715 21 11Z" fill="#B41730"/>
<path fill-rule="evenodd" clip-rule="evenodd" d="M15.3535 14.6464L14.6464 15.3535L11 11.7071L7.35352 15.3535L6.64641 14.6464L11 10.2929L15.3535 14.6464Z" fill="#B41730"/>
<path fill-rule="evenodd" clip-rule="evenodd" d="M15.3535 10.2929L14.6464 11L11 7.35355L7.35352 11L6.64641 10.2929L11 5.93934L15.3535 10.2929Z" fill="#B41730"/>
</svg>
