<svg width="1438" height="346" viewBox="0 0 1438 346" fill="none" xmlns="http://www.w3.org/2000/svg">
<path d="M1352.95 92.2428C1351.87 91.8839 1351.15 91.7045 1350.97 91.7045C1350.44 91.7045 1347.21 92.7812 1342.9 94.3964C1331.77 98.7034 1313.29 106.42 1313.29 106.42C1313.29 106.42 1309.88 120.598 1307.91 126.161C1307.55 127.417 1307.19 128.135 1307.01 128.314C1305.76 129.391 1288.71 129.032 1277.76 128.314C1266.82 127.597 1265.56 127.597 1265.56 127.597C1265.56 127.597 1265.74 122.751 1269.51 121.854C1273.46 120.957 1290.86 118.624 1293.73 117.906C1296.6 117.367 1298.4 118.085 1299.3 115.214C1299.66 113.778 1300.55 108.574 1301.63 103.369C1301.99 101.216 1302.53 99.0623 1302.89 97.2677C1303.42 95.1142 1303.96 93.4991 1304.5 92.6018C1305.76 90.4482 1311.68 84.885 1315.8 81.1163C1318.14 78.9628 1319.93 77.3476 1320.47 76.9887C1321.91 75.7325 1333.03 72.6816 1333.03 72.6816C1333.03 72.6816 1340.21 74.2968 1344.69 75.3735C1345.77 75.553 1346.67 75.7325 1347.21 75.9119C1348.1 76.0914 1350.44 76.8092 1353.31 77.886C1354.56 80.3984 1353.85 86.5001 1352.95 92.2428Z" fill="#EEA886"/>
<path d="M1320.47 76.0913C1320.47 76.0913 1305.93 80.7573 1302.71 93.6784L1308.27 95.832L1320.47 76.0913Z" fill="#E6435C"/>
<path d="M1270.23 121.854C1270.23 121.854 1265.38 120.239 1264.85 120.059C1264.13 119.88 1262.15 120.418 1260 121.136C1257.85 122.033 1255.34 124.007 1255.16 124.366C1255.16 124.725 1254.8 125.084 1255.16 125.981C1255.51 126.879 1256.59 127.238 1256.59 127.238C1256.59 127.238 1256.59 128.853 1257.67 129.391C1257.67 129.391 1257.67 130.647 1259.1 131.186C1259.1 131.186 1258.92 132.621 1259.82 132.801C1259.82 132.801 1261.79 132.263 1262.51 132.263C1263.23 132.263 1268.61 129.571 1272.2 127.597C1272.38 127.955 1274 126.34 1270.23 121.854Z" fill="#EEA886"/>
<path d="M1263.95 124.905C1263.95 124.905 1265.74 126.52 1266.46 126.699C1267.18 126.879 1264.84 131.724 1264.84 131.724C1264.84 131.724 1261.97 127.058 1263.95 124.905Z" fill="#CF8C6C"/>
<path d="M1334.11 285.881C1334.11 285.881 1338.05 297.007 1340.57 298.084C1343.08 299.34 1346.85 305.622 1344.69 308.672C1342.54 311.723 1329.62 319.44 1328.54 321.594C1327.65 323.747 1324.6 290.726 1334.11 285.881Z" fill="#E8D9DB"/>
<path d="M1330.34 273.678L1326.03 291.085C1326.03 291.085 1321.9 282.651 1317.78 274.575C1316.7 272.601 1315.62 270.447 1314.73 268.473C1312.39 264.166 1310.42 260.577 1309.52 259.141C1306.47 255.014 1296.6 238.683 1292.84 234.196C1289.07 229.71 1291.94 224.864 1292.48 218.404C1293.02 211.764 1301.45 188.613 1302.88 181.614C1304.32 174.615 1310.96 149.312 1310.96 149.312C1322.98 154.516 1330.34 273.678 1330.34 273.678Z" fill="#DE9D7D"/>
<path d="M1312.57 150.209C1312.57 150.209 1313.11 163.13 1312.75 166.54C1312.4 169.949 1311.86 189.152 1311.5 198.484C1311.32 207.816 1308.45 225.762 1309.7 229.71C1310.78 233.478 1315.27 255.193 1316.7 262.192C1318.14 269.191 1320.65 314.415 1320.65 314.415C1320.65 314.415 1326.57 315.851 1331.59 312.621C1331.59 312.621 1332.31 292.88 1335 282.83C1337.7 272.78 1337.7 254.475 1334.11 242.99C1330.52 231.504 1337.16 214.815 1341.64 205.662C1346.31 196.51 1353.49 159.9 1352.95 155.234C1352.41 150.568 1349.18 140.877 1342.72 133.339C1336.44 125.623 1312.57 150.209 1312.57 150.209Z" fill="#EEA886"/>
<path d="M1331.42 312.621C1331.42 312.621 1326.57 313.697 1324.06 313.159C1321.55 312.621 1319.75 313.518 1319.75 313.518C1319.75 313.518 1314.55 322.67 1309.7 325.003C1304.86 327.336 1292.84 331.285 1294.27 336.13C1295.71 340.975 1309.52 339.54 1314.55 337.027C1319.57 334.515 1332.31 334.335 1333.57 329.49C1335.18 324.644 1330.88 314.954 1331.42 312.621Z" fill="#E8D9DB"/>
<path d="M1308.99 153.439C1308.99 153.439 1306.83 165.104 1306.12 168.334C1305.4 171.385 1294.99 202.432 1294.99 202.432C1294.99 202.432 1316.34 223.07 1346.49 218.224C1346.49 218.224 1356.18 178.564 1354.74 159.72C1353.67 146.081 1347.56 137.826 1344.87 134.057C1342.36 130.109 1308.99 153.439 1308.99 153.439Z" fill="#E6435C"/>
<path d="M1317.78 274.575C1316.7 272.601 1315.62 270.447 1314.73 268.473C1315.09 265.961 1313.47 246.938 1313.47 246.938C1316.88 257.347 1317.78 274.575 1317.78 274.575Z" fill="#C78564"/>
<path d="M1327.11 23.689C1327.11 23.689 1332.13 18.8436 1338.59 24.4069C1345.05 29.9701 1343.44 36.7896 1344.33 42.7118C1345.23 48.8135 1341.64 63.1703 1345.05 68.5542C1348.46 74.1174 1346.13 77.7066 1346.13 77.7066C1346.13 77.7066 1329.08 85.6029 1326.21 58.3249C1323.16 31.4058 1327.11 23.689 1327.11 23.689Z" fill="#0C3454"/>
<path d="M1336.98 66.4008C1336.98 66.4008 1337.34 69.6311 1338.59 70.8873C1339.85 72.1436 1350.44 74.1176 1353.13 77.3479C1355.82 80.5782 1351.87 98.3448 1350.97 103.19C1350.08 108.036 1345.23 118.265 1345.59 121.675C1345.95 125.084 1346.49 133.519 1347.57 136.032C1348.64 138.723 1352.95 150.388 1353.67 152.542C1353.67 152.542 1327.11 160.438 1308.45 155.413C1308.45 155.413 1309.52 138.723 1308.99 135.134C1308.45 131.545 1306.83 118.085 1306.83 114.317C1306.83 110.548 1300.91 107.138 1303.07 100.319C1305.04 94.3967 1314.73 82.5523 1316.52 80.2193C1318.32 77.8863 1322.8 73.3998 1322.8 73.3998C1322.8 73.3998 1325.14 67.2981 1324.24 63.5295L1336.44 56.71C1336.62 56.8894 1336.44 64.2473 1336.98 66.4008Z" fill="#E6435C"/>
<path d="M1353.67 79.8603C1352.59 79.1425 1349.72 74.4765 1344.87 78.7836C1339.85 83.2701 1336.98 90.0896 1335.72 93.3199C1334.47 96.5502 1327.29 111.625 1325.85 114.137C1324.42 116.65 1322.44 117.368 1318.5 119.342C1314.37 121.495 1291.04 136.39 1289.25 137.108L1293.2 142.492C1293.2 142.492 1324.96 131.007 1328.54 128.494C1331.95 125.982 1334.47 123.29 1338.59 116.829C1342.54 110.369 1353.67 95.294 1354.92 92.602C1355.82 89.9101 1359.05 83.8085 1353.67 79.8603Z" fill="#EEA987"/>
<path d="M1332.49 95.8321C1332.49 95.8321 1343.08 99.6007 1348.1 104.985C1348.1 104.985 1363.71 86.859 1353.85 77.886C1345.59 70.3487 1336.98 88.6536 1332.49 95.8321Z" fill="#E6435C"/>
<path d="M1338.59 71.0668C1338.59 71.0668 1331.42 83.4495 1322.26 84.1674C1313.11 84.7058 1322.8 73.7587 1322.8 73.7587C1322.8 73.7587 1323.34 72.5024 1323.7 70.5284C1323.88 69.6311 1324.06 68.7338 1324.24 67.657C1324.42 66.4008 1324.42 65.1446 1324.24 63.7089L1336.8 54.7358C1336.8 54.9153 1336.08 68.1954 1338.59 71.0668Z" fill="#EEA987"/>
<path d="M1326.21 67.4772C1324.06 67.8362 1317.96 68.1951 1312.39 54.915C1305.58 38.7635 1311.86 28.5343 1318.49 25.6629C1324.95 22.7916 1331.77 23.8683 1336.98 32.1235C1336.98 32.1235 1340.75 38.5841 1338.95 51.5053C1336.98 64.6059 1328.54 67.1183 1326.21 67.4772Z" fill="#EEA987"/>
<path d="M1325.85 35.713C1325.85 35.713 1316.88 38.046 1310.6 52.4028C1310.6 52.4028 1303.78 37.6871 1312.75 28.714C1321.9 19.741 1330.34 24.407 1333.39 26.9194C1333.39 26.9194 1337.16 27.0989 1338.59 33.9184C1340.03 40.7379 1346.49 50.2493 1337.34 57.0688C1337.34 57.0688 1336.98 49.1725 1335.72 47.5574C1334.46 45.9422 1331.59 47.7368 1325.85 35.713Z" fill="#0C3454"/>
<path d="M1334.65 44.6858C1334.82 43.4296 1336.08 42.7117 1336.98 43.7885C1337.87 44.8653 1338.05 50.0696 1336.26 50.9669C1334.65 51.8642 1334.11 47.1982 1334.65 44.6858Z" fill="#EEA987"/>
<path d="M1333.75 63.1704C1333.75 63.1704 1331.41 69.9899 1323.7 70.5283C1323.88 69.631 1324.06 68.7337 1324.24 67.6569C1324.24 67.6569 1329.08 68.1953 1333.75 63.1704Z" fill="#A77860"/>
<path d="M691.873 52.9992L694.785 65.9565L767.617 49.5846L764.705 36.6272L691.873 52.9992Z" fill="#BCC0CF"/>
<path d="M780.428 106.766L777.518 93.8091L704.686 110.174L707.597 123.131L780.428 106.766Z" fill="#BCC0CF"/>
<path d="M716.937 19.4428L697.328 23.8506L725.07 147.296L744.679 142.888L716.937 19.4428Z" fill="#DBDFF0"/>
<path d="M974.876 39.4816C974.876 39.4816 976.85 34.2772 977.029 33.3799C977.209 32.6621 976.671 30.3291 975.773 27.8167C974.876 25.3042 972.364 22.2534 972.005 22.0739C971.467 21.8945 971.108 21.715 970.031 22.0739C968.955 22.4328 968.417 23.8685 968.417 23.8685C968.417 23.8685 966.802 23.6891 965.904 25.1248C965.904 25.1248 964.469 25.1248 963.751 26.7399C963.751 26.7399 962.136 26.5604 961.777 27.8167C961.777 27.8167 962.495 30.1496 962.316 31.0469C962.316 31.9443 964.648 37.687 966.981 41.994C966.802 41.8146 969.673 43.9681 974.876 39.4816Z" fill="#EEA886"/>
<path d="M971.287 32.4828C971.287 32.4828 969.314 34.4569 969.134 35.3542C968.955 36.2515 963.213 33.3801 963.213 33.3801C963.213 33.3801 968.775 30.3293 971.287 32.4828Z" fill="#CF8C6C"/>
<path d="M1092.94 27.2782C1092.94 27.2782 1089.89 22.6122 1089.36 21.8944C1088.82 21.1765 1089 18.8435 1089.36 16.1516C1089.71 13.4597 1091.33 9.8705 1091.69 9.69104C1092.05 9.51157 1092.41 9.15265 1093.66 9.33211C1094.92 9.51157 1095.64 10.5883 1095.64 10.5883C1095.64 10.5883 1097.25 10.05 1098.33 11.1267C1098.33 11.1267 1099.94 10.7678 1100.84 12.2035C1100.84 12.2035 1102.27 11.6651 1102.99 12.7419C1102.99 12.7419 1102.99 15.0749 1103.17 15.9722C1103.35 16.8695 1102.45 22.9711 1101.2 27.6371C1101.2 27.6371 1099.04 30.329 1092.94 27.2782Z" fill="#EEA886"/>
<path d="M1094.74 19.5614C1094.74 19.5614 1097.07 21.1766 1097.43 21.8944C1097.79 22.6123 1102.63 18.6641 1102.63 18.6641C1102.63 18.6641 1096.71 16.8695 1094.74 19.5614Z" fill="#CF8C6C"/>
<path d="M975.054 325.721C975.054 325.721 972.722 330.029 971.107 331.823C969.492 333.618 963.75 336.669 963.57 341.873C963.57 347.436 973.439 346.001 977.387 345.642C981.335 345.462 981.514 342.411 983.129 339.181C984.744 335.951 986.359 336.489 986.718 333.977C987.077 331.464 985.103 325.542 985.103 325.542H975.054V325.721Z" fill="#202338"/>
<path d="M1086.84 329.131C1086.84 329.131 1091.69 334.515 1096.53 335.591C1101.38 336.668 1104.79 338.104 1104.79 341.155C1104.79 344.206 1090.79 346.18 1085.23 343.129C1076.98 338.463 1076.08 339.899 1075.18 337.566C1074.28 335.233 1076.26 329.131 1076.26 328.413C1076.08 327.516 1086.84 329.131 1086.84 329.131Z" fill="#202338"/>
<path d="M1086.31 326.619C1086.31 326.619 1087.02 329.131 1086.84 329.131C1086.66 329.131 1075.9 330.567 1076.26 328.413C1076.44 326.798 1076.97 325.003 1076.97 325.003L1086.31 326.619Z" fill="#81807E"/>
<path d="M985.104 323.927C985.104 323.927 985.643 326.26 985.463 326.439C985.463 326.439 974.518 328.413 974.518 326.439C974.518 324.824 975.594 323.029 975.594 323.029L985.104 323.927Z" fill="#81807E"/>
<path d="M1076.44 176.41C1076.44 176.41 1084.69 213.558 1086.66 226.659C1089 242.093 1091.51 251.604 1092.23 259.5C1093.12 269.55 1087.38 323.209 1087.92 326.26C1088.46 329.131 1074.82 327.157 1074.82 327.157C1074.82 327.157 1072.85 263.448 1070.34 252.86C1068 242.99 1054.54 199.56 1052.39 202.252C1050.24 204.944 1023.14 257.706 1021.53 265.602C1019.91 273.498 988.871 328.951 988.871 328.951C988.871 328.951 976.49 329.31 973.619 326.798C973.619 326.798 995.69 273.139 998.74 258.782C999.817 253.219 1019.02 194.177 1027.81 169.411C1032.47 156.131 1076.44 176.41 1076.44 176.41Z" fill="#3C3D47"/>
<path d="M1009.15 92.7815C1007.17 92.2431 1021.35 86.3209 1026.73 83.8085C1029.24 82.5523 1031.22 81.8344 1031.58 81.8344C1032.83 81.655 1048.8 82.0139 1048.8 82.0139C1048.8 82.0139 1051.14 82.5523 1053.47 83.629C1057.6 85.2442 1063.88 87.5772 1068.54 89.3718C1069.98 89.9102 1071.95 90.8075 1073.39 91.5253C1073.57 96.9091 1073.57 102.652 1073.57 108.933C1073.57 108.933 1073.74 122.393 1074.46 136.032C1073.92 139.082 1074.64 146.261 1074.64 146.261C1075 153.08 1076.08 160.079 1076.62 163.848C1077.33 169.95 1078.77 178.564 1078.77 178.564L1071.23 182.153L1037.5 184.127L1026.73 181.973C1026.73 181.973 1025.48 154.875 1024.76 146.979C1024.04 139.441 1021.89 122.572 1021.53 121.495C1021.71 121.675 1021.17 95.8324 1009.15 92.7815Z" fill="#DBD8E3"/>
<path d="M1077.87 175.692C1077.87 175.692 1054.9 179.282 1034.45 178.743L1034.99 185.383C1034.99 185.383 1065.49 186.101 1079.31 181.076L1077.87 175.692Z" fill="#27282E"/>
<path d="M1086.49 194.894C1086.49 194.894 1077.87 157.567 1075.9 148.235C1075.72 136.57 1074.82 118.444 1074.28 111.625C1074.1 109.83 1074.1 108.933 1074.1 108.933C1074.1 106.959 1073.93 104.087 1073.57 100.857C1073.57 100.498 1073.57 100.139 1073.39 99.6008C1073.21 98.3446 1073.21 97.0884 1073.03 95.6527C1072.85 94.0376 1072.67 92.6019 1072.49 91.1662C1072.13 87.2181 1071.77 83.8083 1071.77 81.6548C1071.77 81.6548 1071.59 81.6548 1071.23 81.8342C1068.72 82.3726 1057.42 84.7056 1051.32 82.911C1051.5 83.4494 1055.8 92.0635 1059.93 111.086C1061.54 118.624 1064.42 131.186 1066.75 144.287C1067.65 149.311 1068.9 154.516 1070.16 159.361C1071.41 164.207 1072.67 168.693 1073.21 172.641C1073.39 173.539 1073.57 174.436 1073.57 175.333C1073.57 175.692 1073.75 175.872 1073.75 176.231C1073.93 177.487 1074.1 179.102 1074.46 180.538C1074.46 181.076 1074.64 181.614 1074.64 182.332C1075.9 190.946 1076.98 200.817 1076.98 200.817L1080.92 199.201L1084.51 197.766C1086.31 197.227 1087.02 196.151 1086.49 194.894Z" fill="#5E6070"/>
<path d="M979.72 85.7826C977.208 83.0907 964.109 44.1477 964.647 41.8147C965.006 40.0201 975.772 38.9434 975.772 38.9434C975.772 38.9434 985.462 60.4786 990.486 75.1944C992.28 80.5782 1007.35 84.7058 1005.2 84.3469C1003.41 83.988 1019.02 86.8593 1024.22 84.5263C1025.12 83.988 1029.24 82.7317 1030.14 82.3728C1031.4 83.629 1038.75 91.8842 1043.78 124.187C1044.68 129.571 1043.96 141.236 1043.6 150.747C1043.24 160.797 1042.7 168.873 1042.34 177.307C1041.8 193.997 1041.63 204.585 1041.63 204.585L1024.76 198.484C1022.07 197.407 1017.76 194.536 1018.48 191.664C1021.53 180.717 1025.12 162.233 1024.4 152.721C1024.4 152.721 1019.02 114.676 1017.22 109.651C1017.22 109.83 985.282 92.0637 979.72 85.7826Z" fill="#5E6070"/>
<path d="M1032.65 41.2761C1032.65 41.2761 1046.83 30.6879 1052.03 52.0438C1057.24 73.3996 1054.19 76.6299 1042.88 76.8093C1031.58 76.9888 1026.73 63.8882 1023.5 57.7865C1020.27 52.0438 1027.63 43.7886 1032.65 41.2761Z" fill="#EEA886"/>
<path d="M1028.71 67.8366C1028.71 67.8366 1026.91 62.2733 1029.25 61.0171C1031.4 59.7608 1033.55 62.6322 1033.55 62.6322L1035.35 61.9144C1035.35 61.9144 1031.94 56.71 1033.73 54.7359C1035.53 52.7619 1049.34 49.8905 1050.42 47.5575C1051.5 45.2245 1047.91 34.6364 1041.81 34.4569C1037.86 34.2774 1027.09 34.9953 1022.43 42.5326C1022.43 42.5326 1016.86 44.3272 1018.12 48.8137C1019.38 53.4797 1026.02 65.3241 1028.71 67.8366Z" fill="#D88A51"/>
<path d="M1031.22 57.7866C1029.96 56.1715 1026.01 57.6072 1027.27 60.2991C1028.53 63.1705 1033.19 66.7597 1034.27 65.5035C1035.35 64.2472 1032.83 60.1196 1031.22 57.7866Z" fill="#EEA886"/>
<path d="M1033.37 83.2701C1033.37 83.2701 1034.81 82.0138 1031.94 71.0667C1031.22 68.1954 1047.73 73.5792 1047.73 73.5792C1047.73 73.5792 1047.73 74.8354 1047.91 76.4506C1047.91 76.9889 1047.91 77.7068 1048.09 78.2452C1048.09 78.7836 1048.09 79.3219 1048.27 79.6809C1048.27 80.2192 1048.45 80.7576 1048.45 81.296C1048.62 82.0138 1048.98 83.0906 1049.16 83.4495C1049.7 85.2441 1039.47 87.2182 1033.37 83.2701Z" fill="#EEA987"/>
<path d="M1044.68 88.2949L1047.91 92.0636C1047.91 92.0636 1046.29 94.3966 1043.24 92.9609L1044.68 88.2949Z" fill="#285173"/>
<path d="M1047.01 92.2432C1047.01 92.2432 1060.83 133.34 1060.83 166.001L1057.6 172.641L1053.65 166.181C1053.65 166.181 1048.62 108.036 1044.68 92.2432H1047.01Z" fill="#285173"/>
<path d="M1047.55 84.3466L1044.68 88.2947C1044.68 88.2947 1039.65 87.7563 1037.86 85.0644C1036.24 82.5519 1047.55 84.3466 1047.55 84.3466Z" fill="#EEA987"/>
<path d="M1048.09 81.1162C1048.09 81.1162 1047.91 83.9876 1044.68 88.2946L1048.8 93.1401L1050.06 82.3724L1048.09 81.1162Z" fill="#C4C1CC"/>
<path d="M1033.55 79.3218C1033.55 79.3218 1039.47 86.6797 1044.86 88.2948L1042.88 94.3965L1031.22 82.0137L1033.55 79.3218Z" fill="#C4C1CC"/>
<path d="M1105.15 68.0158C1108.02 61.3758 1104.25 25.3042 1104.25 25.3042L1092.23 26.7399C1092.23 26.7399 1092.05 35.354 1092.59 50.9671C1092.77 55.4536 1092.41 61.3758 1092.05 62.0936C1091.69 62.8115 1077.69 79.1424 1072.49 80.937C1070.51 81.6548 1065.13 85.244 1061.9 89.0127C1058.67 92.7814 1060.65 97.6268 1060.65 97.6268C1068.72 106.779 1081.82 93.3198 1081.82 93.3198C1081.82 93.3198 1101.2 77.5272 1105.15 68.0158Z" fill="#5E6070"/>
<path d="M1087.74 86.8594C1087.74 86.8594 1073.57 103.908 1074.28 113.42C1074.64 118.086 1067.64 98.8832 1067.64 98.8832L1087.74 86.8594Z" fill="#5E6070"/>
<path d="M1047.91 79.8602C1038.22 80.0397 1034.27 73.938 1034.27 73.938C1039.83 78.4245 1047.73 76.4504 1047.73 76.4504C1047.73 76.9888 1047.73 77.7067 1047.91 78.245C1047.91 78.9629 1047.91 79.5013 1047.91 79.8602Z" fill="#A77860"/>
<path d="M1438 117.726V122.751C1424.18 126.161 1409.65 130.648 1394.94 136.57C1380.94 142.133 1366.05 145.722 1352.41 147.876C1352.23 147.876 1352.23 147.876 1352.05 147.876C1351.69 147.876 1351.51 147.876 1351.15 148.055C1335.9 150.568 1322.26 151.286 1313.29 151.465C1313.11 151.465 1312.75 151.465 1312.57 151.465C1312.22 151.465 1311.86 151.465 1311.5 151.465C1311.14 151.465 1310.78 151.465 1310.24 151.465C1309.7 151.465 1309.17 151.465 1308.63 151.465C1307.73 151.465 1306.83 151.465 1306.12 151.465C1303.24 151.465 1301.81 151.465 1301.63 151.465C1296.07 151.286 1291.04 150.029 1286.2 147.696C1281.89 145.722 1277.76 142.851 1273.64 139.441C1270.77 136.929 1267.9 134.237 1265.2 131.365C1265.02 131.186 1265.02 131.186 1264.85 131.007C1264.67 130.827 1264.49 130.648 1264.31 130.468C1264.13 130.289 1263.77 129.93 1263.59 129.75C1261.79 127.776 1259.82 125.623 1258.03 123.469C1257.85 123.11 1257.49 122.751 1257.31 122.572C1254.26 118.983 1251.21 115.214 1247.8 111.266C1226.8 85.0646 1200.43 52.7617 1151.98 31.047C1137.09 24.4069 1120.94 19.9204 1103.17 17.408C1102.99 17.408 1102.63 17.408 1102.46 17.408C1100.48 17.049 1098.33 16.8696 1096.35 16.6901C1095.64 16.6901 1094.74 16.5106 1094.02 16.5106C1093.12 16.5106 1092.41 16.3312 1091.51 16.3312C1090.79 16.3312 1090.07 16.1517 1089.36 16.1517C1055.98 13.2804 1018.12 17.5874 976.133 28.714C975.415 28.8934 974.518 29.0729 973.8 29.2523C973.441 29.4318 972.903 29.4318 972.544 29.6113C971.467 29.9702 970.391 30.1497 969.314 30.5086C967.34 31.047 965.366 31.5853 963.393 32.1237C963.213 32.1237 962.854 32.3032 962.675 32.3032C952.626 35.1745 942.219 38.5843 931.632 42.353C928.941 43.2503 926.608 44.1476 925.173 44.5065C911.715 48.8136 900.59 50.9671 891.618 52.2233C889.824 52.4028 888.029 52.7617 886.415 52.9411C884.441 53.1206 882.826 53.3001 881.211 53.4795C873.316 54.0179 869.009 53.4795 868.65 53.4795L869.189 48.6341C869.189 48.6341 872.957 48.993 880.134 48.6341C881.749 48.4546 883.544 48.4546 885.338 48.2752C886.953 48.0957 888.747 47.9162 890.542 47.5573C899.154 46.3011 910.28 44.1476 923.558 40.02C924.993 39.6611 927.147 38.7638 929.838 37.8665C936.657 35.5335 947.602 31.5853 961.598 27.4577C965.008 26.381 968.776 25.4837 972.723 24.4069C973.082 24.2275 973.441 24.2275 973.62 24.2275C987.796 20.4588 1004.12 16.6901 1021.53 14.1777C1046.29 10.409 1069.44 9.51169 1090.79 11.3063C1090.97 11.3063 1091.33 11.3063 1091.51 11.3063C1095.46 11.6652 1099.23 12.0241 1102.99 12.5625C1121.48 15.075 1138.52 19.7409 1153.77 26.7399C1203.3 48.8136 1230.21 81.6548 1251.75 108.036C1255.33 112.522 1258.74 116.65 1261.97 120.418C1262.33 120.777 1262.69 121.316 1263.05 121.675C1263.95 122.572 1264.67 123.469 1265.38 124.366C1265.56 124.546 1265.74 124.725 1265.92 125.084C1266.82 125.982 1267.72 126.879 1268.43 127.776C1268.79 128.315 1269.33 128.674 1269.87 129.212C1272.74 132.083 1275.43 134.775 1278.3 137.108C1282.25 140.338 1286.38 142.851 1290.68 144.466C1294.27 145.902 1297.86 146.62 1301.81 146.62C1301.99 146.62 1304.5 146.62 1308.81 146.62C1310.78 146.62 1313.29 146.62 1315.98 146.44C1316.88 146.44 1317.96 146.44 1319.03 146.261C1327.11 145.902 1337.52 145.004 1349 143.21C1349.36 143.21 1349.72 143.03 1349.9 143.03H1350.08C1363.71 140.877 1378.61 137.467 1392.6 131.904C1408.57 125.982 1423.65 121.136 1438 117.726Z" fill="#BCC0CF"/>
<path d="M1091.69 10.4088C1091.69 10.4088 1090.97 17.2283 1092.05 17.5873C1093.12 17.7667 1093.66 17.2284 1093.66 17.2284L1094.74 20.0997C1094.74 20.0997 1096.53 21.7149 1097.79 19.2024C1097.79 19.2024 1099.23 20.8176 1100.12 18.4846C1100.12 18.4846 1101.56 19.2024 1102.28 18.1257C1102.81 17.0489 1103.17 12.5624 1103.17 12.5624C1103.17 12.5624 1102.81 11.6651 1101.02 11.8445C1101.02 11.8445 1100.12 10.4088 1098.51 10.7678C1098.51 10.7678 1097.61 9.69101 1095.82 10.2294C1095.82 10.2294 1093.66 8.07586 1091.69 9.69101C1091.69 9.69101 1091.69 10.0499 1091.69 10.4088Z" fill="#DB9C7C"/>
<path d="M1089.36 21.7148C1089.36 21.7148 1091.87 17.7666 1094.2 16.1515C1094.74 15.7925 1095.28 15.6131 1095.82 15.972C1096.35 16.3309 1096.53 17.5872 1095.46 19.3818C1094.38 21.1764 1094.02 23.8683 1094.02 23.8683C1094.02 23.8683 1092.59 25.4834 1089.36 21.7148Z" fill="#EEA886"/>
<path d="M972.184 22.7918C972.184 22.7918 974.517 29.2524 973.44 29.7908C972.364 30.3291 971.825 29.7908 971.825 29.7908L971.467 32.8416C971.467 32.8416 970.031 34.8157 968.416 32.6621C968.416 32.6621 967.34 34.6362 965.904 32.4827C965.904 32.4827 964.648 33.38 963.751 32.4827C962.854 31.5854 961.598 27.2783 961.598 27.2783C961.598 27.2783 961.777 26.2015 963.392 26.0221C963.392 26.0221 963.93 24.4069 965.545 24.4069C965.545 24.4069 966.084 23.1507 967.878 23.1507C967.878 23.1507 969.493 20.6383 971.646 21.715C971.826 22.2534 972.005 22.6123 972.184 22.7918Z" fill="#DB9C7C"/>
<path d="M977.029 33.3801C977.029 33.3801 973.619 30.1498 970.928 29.073C970.389 28.8936 969.672 28.7141 969.313 29.2525C968.954 29.7909 968.954 30.8676 970.389 32.4828C971.825 33.9185 972.901 36.6104 972.901 36.6104C972.901 36.6104 974.875 37.6871 977.029 33.3801Z" fill="#EEA886"/>
<path d="M833.121 1.077L794.363 9.87057L820.023 124.187L858.781 115.393C880.672 110.548 894.309 88.8332 889.464 66.939L881.569 31.5853C876.724 9.87056 855.013 -3.9479 833.121 1.077Z" fill="#DBDFF0"/>
<path d="M883.89 65.14L894.045 62.8584L887.398 33.2665L877.243 35.5481L883.89 65.14Z" fill="#DBDFF0"/>
<path d="M1255.69 124.187C1255.69 124.187 1261.25 122.213 1261.61 123.11C1261.97 124.008 1261.61 124.546 1261.61 124.546L1264.31 124.725C1264.31 124.725 1265.92 125.802 1264.31 127.417C1264.31 127.417 1265.92 128.315 1264.13 129.571C1264.13 129.571 1265.02 130.648 1264.13 131.366C1263.41 132.083 1259.82 133.16 1259.82 133.16C1259.82 133.16 1258.92 132.981 1258.74 131.545C1258.74 131.545 1257.31 131.186 1257.31 129.75C1257.31 129.75 1256.23 129.212 1256.23 127.776C1256.23 127.776 1254.08 126.52 1254.97 124.546C1255.15 124.367 1255.51 124.367 1255.69 124.187Z" fill="#DB9C7C"/>
<path d="M1264.67 120.06C1264.67 120.06 1261.97 122.931 1261.08 125.264C1260.9 125.802 1260.9 126.341 1261.26 126.7C1261.62 127.059 1262.69 126.879 1263.95 125.802C1265.2 124.546 1267.36 123.649 1267.36 123.649C1267.36 123.649 1268.25 121.854 1264.67 120.06Z" fill="#EEA886"/>
<path d="M1294.27 134.237C1294.27 134.237 1289.97 136.749 1288.71 136.57C1287.45 136.39 1285.66 136.57 1284.58 136.749C1283.51 136.749 1280.28 136.031 1279.2 136.57C1278.66 136.749 1276.33 138.903 1275.43 139.082C1274.53 139.441 1272.38 139.8 1272.74 140.518C1272.92 141.236 1274.89 141.415 1274.89 141.415C1274.89 141.415 1274 141.774 1274 142.492C1274 143.928 1274.89 144.287 1274.89 144.287C1274.89 144.287 1274.17 145.184 1274.35 145.722C1274.71 146.979 1275.61 147.337 1275.61 147.337C1275.61 147.337 1275.43 148.055 1275.79 148.773C1276.33 149.85 1277.76 149.67 1277.76 149.67C1277.76 149.67 1278.12 151.106 1279.2 151.106C1280.1 151.106 1280.99 150.747 1281.71 150.568C1282.43 150.388 1288.53 147.517 1291.76 143.928C1294.99 140.338 1299.12 138.723 1299.12 138.723L1294.27 134.237Z" fill="#EEA886"/>
<path d="M137.627 319.979C137.627 319.979 142.831 325.542 148.214 326.619C153.597 327.695 157.365 329.31 157.365 332.361C157.365 335.592 141.934 337.566 135.833 334.515C126.682 329.669 125.785 331.105 124.708 328.772C123.631 326.439 125.964 319.978 125.785 319.261C125.785 318.363 137.627 319.979 137.627 319.979Z" fill="#202338"/>
<path d="M136.909 317.287C136.909 317.287 137.627 319.799 137.448 319.978C137.268 319.978 125.425 321.414 125.784 319.261C126.143 317.645 126.502 315.671 126.502 315.671L136.909 317.287Z" fill="#2F6B8C"/>
<path d="M78.0544 321.414C78.0544 321.414 82.002 326.798 87.0262 328.054C92.0504 329.31 95.4597 331.643 95.6391 334.694C95.8186 337.745 83.6169 341.872 75.004 336.489C69.262 332.899 67.2882 333.079 66.0322 330.925C64.9556 328.592 66.5705 322.311 66.5705 321.593C66.5705 320.517 78.0544 321.414 78.0544 321.414Z" fill="#202338"/>
<path d="M77.8748 318.722L78.0542 321.414C77.8748 321.414 66.5703 323.568 66.5703 321.414C66.5703 319.799 67.2881 317.825 67.2881 317.825L77.8748 318.722Z" fill="#2F6B8C"/>
<path d="M124.887 161.694C124.887 161.694 130.45 201.894 132.603 215.353C135.295 231.146 136.192 244.426 136.91 252.501C137.807 262.91 137.269 315.672 137.986 318.722C138.704 321.773 124.887 320.158 124.887 320.158C124.887 320.158 114.839 251.425 112.147 240.478C109.635 230.248 102.458 187.896 100.125 190.767C97.7926 193.638 90.2563 241.734 88.4619 249.81C86.6676 257.885 79.6696 321.594 79.6696 321.594C79.6696 321.594 68.0062 324.106 64.7764 321.594C64.7764 321.594 65.4941 264.884 66.5707 249.63C66.9296 243.887 62.982 180.538 72.6716 154.875C78.0546 141.415 124.887 161.694 124.887 161.694Z" fill="#323657"/>
<path d="M125.426 163.668L125.964 169.77C125.964 169.77 109.097 176.59 68.1855 176.59V169.77L125.426 163.668Z" fill="#67AAF5"/>
<path d="M149.291 127.058C149.291 127.058 155.212 127.776 156.468 127.417C157.724 127.058 159.877 127.597 161.133 127.417C162.389 127.238 165.619 125.623 166.875 125.982C167.414 126.161 170.285 128.135 171.361 128.315C172.438 128.494 174.771 128.494 174.591 129.391C174.412 130.289 172.438 130.827 172.438 130.827C172.438 130.827 173.156 131.186 173.335 132.083C173.515 133.698 172.617 134.237 172.617 134.237C172.617 134.237 173.515 135.134 173.335 135.852C173.156 137.467 172.438 137.826 172.438 137.826C172.438 137.826 172.797 138.723 172.438 139.8C172.079 141.056 170.464 141.236 170.464 141.236C170.464 141.236 170.464 142.671 169.567 142.851C168.67 143.21 167.952 143.569 167.234 143.569C166.337 143.569 159.339 141.236 155.212 137.647C151.085 134.057 146.24 131.904 146.24 131.904L149.291 127.058Z" fill="#EEA886"/>
<path d="M154.135 126.52L152.161 136.032C152.161 136.032 138.883 134.596 130.629 131.904C128.835 131.366 127.399 130.827 126.323 130.109C125.964 129.93 125.426 129.571 125.246 129.391C122.734 127.238 121.119 121.495 119.863 115.214C119.504 113.061 119.145 111.087 118.786 108.933C118.248 104.805 117.71 100.678 117.53 97.8064C117.351 94.7556 117.171 92.961 117.171 92.961C117.171 92.961 110.532 70.8873 124.169 69.4517C124.169 69.4517 126.682 69.99 129.911 74.4766C132.424 77.8863 133.321 90.9869 133.141 93.3199C132.962 95.6529 136.551 119.88 136.909 120.598C137.268 121.316 143.369 122.751 148.034 124.546C153.059 126.341 154.135 126.52 154.135 126.52Z" fill="#67AAF5"/>
<path d="M108.738 65.5032C108.738 65.5032 123.452 68.5541 125.067 69.9897C127.04 71.6049 130.27 87.5769 130.45 92.0634C130.629 96.5499 128.655 115.214 126.861 122.033C124.887 129.032 129.373 158.464 125.784 163.489C125.784 163.489 95.6392 173.18 66.75 169.411C66.75 169.411 73.0303 141.595 71.7742 132.083C70.3387 119.88 66.75 91.8839 66.75 91.8839C66.75 91.8839 70.6976 73.0406 73.2097 70.7076C75.7218 68.5541 93.6654 64.9648 93.6654 64.9648L108.738 65.5032Z" fill="#67AAF5"/>
<path d="M115.378 66.939C115.378 66.939 116.275 62.9908 103.714 62.0935C91.1537 61.1962 82.7202 64.0676 82.5408 67.6568C82.3614 71.246 114.301 80.2191 114.301 80.2191L115.378 66.939Z" fill="#67AAF5"/>
<path d="M102.637 20.0996C102.637 20.0996 120.222 13.639 119.145 36.9689C118.069 60.2988 113.942 62.8112 102.278 59.4015C90.6149 56.1712 89.7177 41.4554 88.2823 34.277C86.8468 27.278 96.8952 21.1764 102.637 20.0996Z" fill="#EEA886"/>
<path d="M111.609 69.0924C111.609 69.0924 107.303 70.887 93.6658 64.9648C93.6658 64.9648 94.0247 55.6329 91.3331 46.8393C88.6416 38.0457 109.815 58.5042 109.815 58.5042C109.636 58.6837 109.636 59.581 109.636 60.8372C109.815 61.914 109.994 63.1702 110.353 64.4264C111.071 67.2978 110.892 66.7594 111.609 69.0924Z" fill="#EEA886"/>
<path d="M90.7947 45.9421C90.7947 45.9421 90.7947 39.6609 93.3068 39.1225C95.8189 38.5842 97.2544 42.1734 97.2544 42.1734L99.4076 41.9939C99.4076 41.9939 97.6132 35.7128 99.9459 34.2771C102.458 32.8414 117.172 34.0977 119.146 31.9441C120.94 29.7906 118.248 17.2284 114.301 15.9721C110.174 14.7159 99.2282 12.2035 92.2302 18.4846C92.2302 18.4846 86.1293 20.997 85.9499 26.0219C85.591 31.0468 88.6414 42.7118 90.7947 45.9421Z" fill="#163342"/>
<path d="M110.353 64.4265C96.7157 62.0935 94.7419 54.3767 94.5625 54.1973C99.9456 61.0168 109.635 60.6578 109.635 60.6578C109.815 61.7346 109.994 62.9908 110.353 64.4265Z" fill="#A77860"/>
<path d="M96.1778 36.6103C95.4601 34.6362 90.9742 34.8157 91.5125 38.046C92.0508 41.2763 95.6395 46.3012 97.075 45.4039C98.5105 44.5066 97.2544 39.4817 96.1778 36.6103Z" fill="#EEA886"/>
<path d="M342.184 96.9091C342.184 96.9091 347.208 94.3967 348.106 94.0378C348.823 93.6789 351.335 94.0378 353.848 94.7556C356.539 95.4735 359.769 97.627 359.948 97.9859C360.128 98.5243 360.487 98.8832 360.128 99.96C359.769 101.216 358.513 101.755 358.513 101.755C358.513 101.755 358.692 103.549 357.616 104.446C357.616 104.446 357.795 106.062 356.36 106.779C356.36 106.779 356.719 108.395 355.462 108.933C355.462 108.933 353.13 108.574 352.233 108.574C351.335 108.754 345.235 106.959 340.749 104.985C340.749 105.344 338.237 102.652 342.184 96.9091Z" fill="#EEA886"/>
<path d="M349.721 99.7803C349.721 99.7803 347.927 101.934 347.029 102.293C346.132 102.652 349.541 108.035 349.541 108.035C349.541 108.035 352.233 102.113 349.721 99.7803Z" fill="#CF8C6C"/>
<path d="M308.809 299.879C308.809 299.879 312.757 306.878 315.089 308.314C317.96 310.108 323.523 315.671 325.497 316.03C327.471 316.21 334.469 317.466 333.033 321.414C331.956 324.644 315.269 324.106 313.295 322.491C311.321 320.876 305.759 314.954 303.426 315.133C301.093 315.313 301.991 323.568 301.991 323.568H299.658C299.658 323.568 298.761 315.492 298.761 314.056C298.402 309.929 301.452 306.878 301.452 304.545C301.632 302.212 301.632 300.417 301.632 300.417L308.809 299.879Z" fill="#16202E"/>
<path d="M324.958 315.671C324.958 315.671 319.396 317.646 315.269 315.133C310.962 312.621 302.888 309.031 300.017 309.031C300.017 309.031 301.632 304.186 301.632 303.648C301.632 303.109 301.811 300.597 301.811 300.597L308.988 299.52C308.988 299.52 313.654 306.34 315.628 307.955C317.422 309.39 322.805 313.338 324.958 315.671Z" fill="#EEA886"/>
<path d="M241.7 306.34C241.7 306.34 242.418 311.185 243.135 312.441C243.853 313.697 246.006 320.517 246.904 321.773C247.801 323.029 249.954 332.361 246.904 333.438C243.853 334.515 236.855 336.489 234.522 332.72C232.19 328.952 231.831 325.183 232.19 322.312C232.549 319.44 235.42 306.16 235.42 304.904C235.24 303.648 241.7 306.34 241.7 306.34Z" fill="#EEA886"/>
<path d="M245.648 319.081C245.648 319.081 246.007 326.439 240.445 326.439C234.882 326.439 232.549 319.799 232.549 319.799C232.549 319.799 230.755 323.029 232.549 330.028C234.344 337.027 242.239 335.591 244.033 335.233C245.828 334.874 254.082 332.72 245.648 319.081Z" fill="#16202E"/>
<path d="M250.672 140.518C250.672 140.518 243.495 149.491 240.983 155.593C238.65 161.515 234.523 174.615 235.061 184.845C235.6 195.074 239.009 214.097 237.932 218.404C237.035 222.711 235.959 231.684 234.882 234.735C233.805 237.786 229.678 246.759 229.319 255.911C228.961 265.064 232.37 305.442 232.011 309.211C231.652 312.979 244.213 310.647 244.213 310.647C244.213 310.647 244.572 274.216 246.007 267.935C247.443 261.654 249.057 240.298 250.313 238.862C251.57 237.247 255.158 221.096 255.338 218.583C255.517 216.071 270.41 171.923 271.308 164.386C272.205 156.849 290.866 140.518 290.866 140.518C290.866 140.518 272.384 133.519 250.672 140.518Z" fill="#0C3454"/>
<path d="M296.967 301.853C294.275 301.494 287.277 260.757 287.995 253.399C288.892 246.22 289.61 230.787 287.277 224.506C285.662 220.378 275.973 199.381 269.513 184.665C268.616 182.512 267.718 180.717 267.001 178.923C264.847 174.077 263.591 170.667 263.591 169.95C263.412 167.078 254.44 119.162 290.327 140.518C290.327 140.518 290.686 144.287 291.045 145.722C291.404 147.158 301.094 182.691 301.991 196.33C302.888 209.969 305.4 221.634 305.938 224.506C306.297 227.377 305.579 237.247 304.682 239.76C303.785 242.272 310.065 298.982 310.604 300.238C310.963 301.494 299.658 302.212 296.967 301.853Z" fill="#0C3454"/>
<path d="M278.126 68.3749C278.126 68.3749 285.483 66.0419 289.61 69.9901C293.737 74.1177 296.967 79.5015 298.044 81.655C299.12 83.8085 310.425 99.2422 311.142 99.6011C311.86 99.96 321.37 98.1654 326.933 97.2681C335.007 96.1913 342.185 95.6529 342.185 95.6529L343.261 106.421C343.261 106.421 307.374 113.42 304.144 110.728C297.326 105.164 280.279 84.3469 280.279 84.3469C280.279 84.3469 266.642 76.8096 278.126 68.3749Z" fill="#FFA15B"/>
<path d="M276.152 64.6061C276.152 64.6061 282.97 67.8364 285.303 68.1953C287.636 68.7337 296.787 80.5781 298.402 84.8851C300.017 89.1922 298.402 95.6528 295.172 103.37C291.942 111.086 294.992 113.599 293.557 121.136C292.121 128.853 290.686 145.004 291.045 149.132C291.404 153.439 252.825 154.157 244.212 146.44C244.212 146.44 253.004 133.16 254.081 131.365C255.158 129.391 254.26 119.162 253.184 116.47C252.107 113.778 241.341 92.6019 241.341 92.6019C241.341 92.6019 239.726 74.4764 244.75 70.5283C249.236 67.1185 261.258 65.5034 263.412 64.7856C265.385 64.2472 271.845 63.8883 276.152 64.6061Z" fill="#EDDAD3"/>
<path d="M278.305 79.6809L282.432 74.8355L278.843 62.0938C278.843 62.2732 277.767 69.2722 278.305 79.6809Z" fill="#D6C5BE"/>
<path d="M279.382 56.7099C279.382 56.7099 277.946 69.0926 278.305 73.2202C278.305 73.2202 271.307 80.2192 263.232 64.965C263.232 64.965 266.642 58.6839 264.13 50.0698C261.617 41.4557 279.382 56.7099 279.382 56.7099Z" fill="#EEA886"/>
<path d="M278.305 73.2202V79.6808L270.23 73.7586L278.305 73.2202Z" fill="#EEA886"/>
<path d="M278.305 79.6807L275.076 75.5531L263.592 64.2471L260.003 67.8363L278.305 79.6807Z" fill="#D6C5BE"/>
<path d="M265.386 155.413C262.156 170.667 239.009 153.619 239.009 153.619C239.009 153.619 254.082 128.494 247.981 108.215C247.981 108.036 247.802 107.856 247.802 107.677C247.443 106.42 247.084 105.164 246.725 104.087C241.162 87.3976 237.215 83.0906 237.215 83.0906C237.215 83.0906 243.136 68.3748 249.596 67.2981C256.056 66.2213 261.977 65.1445 261.977 65.1445C261.977 65.1445 271.487 79.6808 272.025 85.962C272.564 92.602 268.616 140.159 265.386 155.413Z" fill="#FFA15B"/>
<path d="M299.478 87.9359C299.478 87.9359 300.196 96.7294 294.095 108.215C294.095 108.215 294.275 123.649 294.454 129.032C294.634 134.416 295.89 153.798 295.89 153.798L289.25 158.643C287.994 159.361 286.2 158.284 286.379 156.849C288.174 141.415 294.275 82.7315 281.176 66.939L286.379 68.5541C286.559 68.3747 299.478 81.8342 299.478 87.9359Z" fill="#FFA15B"/>
<path d="M282.432 74.8352L287.636 76.2709L278.844 62.2729L282.432 74.8352Z" fill="#FAE6DE"/>
<path d="M275.075 75.5531L270.231 81.8342L260.541 65.6828L263.591 64.2471L275.075 75.5531Z" fill="#FAE6DE"/>
<path d="M274.537 16.5107C279.562 15.9723 290.687 17.9464 293.019 31.047C293.019 31.047 292.84 34.6362 292.122 37.5076C291.404 40.379 294.275 48.4547 293.737 48.9931C293.019 49.352 290.507 50.0698 290.507 50.0698C290.507 50.0698 287.995 59.2223 284.945 59.2223C281.715 59.2223 269.693 57.4277 263.592 46.4806C256.953 35.5335 254.441 18.4848 274.537 16.5107Z" fill="#EEA886"/>
<path d="M293.019 31.2266C293.019 31.2266 285.124 37.1488 277.229 38.5845C269.334 40.0202 265.027 54.0181 265.027 54.0181C265.027 54.0181 251.57 33.9185 260.9 20.9974C270.051 8.0762 294.096 15.793 293.019 31.2266Z" fill="#0C3454"/>
<path d="M273.819 38.405C273.64 36.7899 271.845 34.6364 269.333 36.7899C266.821 39.1229 270.589 46.3013 272.742 45.404C274.896 44.6862 273.998 40.0202 273.819 38.405Z" fill="#EEA886"/>
<path d="M279.561 58.5044C279.382 59.4017 279.202 60.658 279.023 61.7347C272.384 57.966 268.795 53.1206 268.795 53.1206C272.563 56.3509 279.561 58.5044 279.561 58.5044Z" fill="#A77860"/>
<path d="M252.646 88.4741C252.287 97.4472 247.981 108.035 247.981 108.035C247.622 106.779 247.263 105.523 246.904 104.446C249.237 97.4472 252.646 88.4741 252.646 88.4741Z" fill="#912B2B"/>
<path d="M266.462 35.5335C268.975 41.0968 267.36 47.1985 263.233 48.9931C258.926 50.7877 253.543 47.9163 251.031 42.353C248.519 36.7898 250.134 30.6881 254.261 28.8935C258.567 27.0989 263.95 29.9702 266.462 35.5335Z" fill="#0C3454"/>
<path d="M293.019 138.005L289.072 138.185L288.713 145.722C288.713 145.722 291.763 142.671 293.019 138.005Z" fill="#EEA886"/>
<path d="M130.809 132.083C129.014 131.545 127.579 131.006 126.502 130.289C126.502 130.289 126.323 121.674 129.194 109.83L130.809 132.083Z" fill="#4775A8"/>
<path d="M83.797 99.7803C83.797 99.7803 84.3353 127.238 86.1296 129.571C87.924 131.904 98.3313 149.67 98.3313 149.67C98.3313 149.67 80.3877 137.288 80.3877 127.597C80.3877 117.906 83.797 99.7803 83.797 99.7803Z" fill="#4775A8"/>
<path d="M509.956 45.9421C511.213 49.1724 513.007 52.2232 514.801 54.9151C521.261 63.8882 537.051 64.9649 538.487 40.9172C538.666 36.4307 538.307 32.662 537.59 29.6112C534.898 18.8436 527.182 16.69 527.182 16.69C521.62 16.1517 511.571 17.049 507.983 24.2274C505.291 29.4317 506.547 38.0459 509.956 45.9421Z" fill="#EEA987"/>
<path d="M509.957 45.9423C509.957 45.9423 510.854 46.1217 513.905 40.379C514.622 39.3022 514.981 40.0201 515.161 39.6612L519.826 38.046C519.826 38.046 515.699 31.5854 521.8 29.6114C528.08 27.6373 537.231 29.6114 537.231 29.6114C542.973 8.79394 525.927 15.434 525.927 15.434C520.006 16.3313 511.393 17.0491 507.804 24.2276C505.292 29.4319 506.548 38.046 509.957 45.9423Z" fill="#665249"/>
<path d="M516.417 36.0716C516.059 34.4565 513.008 32.8413 511.573 36.2511C510.137 39.6609 514.444 43.4295 515.7 42.7117C516.776 42.1733 516.776 38.7635 516.417 36.0716Z" fill="#EEA987"/>
<path d="M444.821 119.162C444.821 119.162 439.438 117.008 438.721 116.65C437.823 116.291 435.491 116.829 432.799 117.726C430.108 118.624 426.878 120.957 426.698 121.495C426.519 122.033 426.16 122.392 426.698 123.648C427.057 124.905 428.313 125.443 428.313 125.443C428.313 125.443 428.134 127.238 429.569 128.135C429.569 128.135 429.39 129.75 431.005 130.468C431.005 130.468 430.825 132.083 432.081 132.622C432.081 132.622 434.414 132.083 435.491 132.083C436.388 132.083 442.489 129.93 446.975 127.776C446.795 127.597 449.307 124.905 444.821 119.162Z" fill="#EEA886"/>
<path d="M437.465 122.572C437.465 122.572 439.439 124.725 440.336 124.905C441.233 125.264 438.003 131.006 438.003 131.006C438.003 131.006 434.953 125.084 437.465 122.572Z" fill="#CF8C6C"/>
<path d="M446.616 130.827C446.616 130.827 474.967 128.135 481.248 125.622C484.119 124.546 485.913 120.777 488.963 115.393C490.04 113.599 490.937 111.804 491.834 110.009C495.423 102.831 498.115 96.0115 498.115 96.0115C498.115 96.0115 509.24 78.4243 497.576 73.0405C497.576 73.0405 492.911 73.22 490.758 75.553C488.604 77.7065 484.118 90.0893 483.221 92.2428C482.145 94.3963 476.762 113.06 476.044 113.419C475.506 113.958 468.328 115.393 463.663 116.47C457.203 118.085 444.643 118.444 444.643 118.444L446.616 130.827Z" fill="#5E5F70"/>
<path d="M572.221 321.953C572.221 321.953 574.015 326.08 575.63 327.695C577.066 329.311 582.808 332.182 582.987 337.027C583.167 342.411 573.656 341.155 569.888 340.975C566.12 340.796 565.761 338.104 564.146 335.053C562.531 332.002 560.916 332.541 560.558 330.208C560.199 327.695 561.634 322.312 561.634 322.312L572.221 321.953Z" fill="#202026"/>
<path d="M497.755 324.824C497.755 324.824 492.731 330.387 487.527 331.643C482.323 332.9 478.555 334.515 478.735 337.566C478.735 340.616 493.987 342.411 499.908 339.001C508.701 333.976 509.777 335.412 510.674 333.079C511.571 330.746 509.239 324.465 509.239 323.747C509.239 322.85 497.755 324.824 497.755 324.824Z" fill="#202026"/>
<path d="M494.166 167.437C494.166 167.437 489.86 207.098 487.886 220.557C485.733 236.35 485.195 249.271 484.656 257.347C483.939 267.576 495.064 322.132 494.525 325.183C493.987 328.234 511.751 323.568 511.751 323.568C511.751 323.568 504.394 258.603 506.906 247.656C509.239 237.427 517.134 192.92 519.467 195.612C521.8 198.304 537.59 246.579 539.564 254.655C541.538 262.551 559.661 324.465 559.661 324.465C559.661 324.465 572.042 326.798 575.092 324.285C575.092 324.285 562.89 267.217 561.275 252.322C560.737 246.579 555.713 184.486 545.306 159.72C539.923 146.261 494.166 167.437 494.166 167.437Z" fill="#3D3D47"/>
<path d="M533.822 156.131C533.822 156.131 528.08 154.336 525.209 153.977C522.338 153.618 553.919 131.545 553.739 124.366C553.56 118.444 549.792 103.01 549.792 103.01C549.433 104.267 545.665 120.418 545.665 128.135C545.665 136.211 547.818 166.719 547.818 166.719L535.975 168.155L501.703 169.949L494.525 169.231C494.525 169.231 495.064 156.131 495.243 149.85C495.422 145.902 495.961 138.723 495.602 131.904C495.602 131.904 495.602 124.546 494.705 121.495C494.346 107.676 493.09 94.0374 493.09 94.0374C492.372 87.7563 492.013 81.8341 491.654 76.4503C493.09 75.553 494.884 74.6557 496.32 73.9379C500.806 71.6049 506.906 68.554 510.854 66.58C513.187 65.5032 515.519 64.6059 515.519 64.6059C515.519 64.6059 531.489 62.6318 532.925 62.6318C533.283 62.6318 535.437 63.3497 537.949 64.247C543.691 66.221 554.816 70.3486 556.61 71.6049C559.302 73.3995 565.761 117.008 566.12 120.059C566.479 125.622 533.822 156.131 533.822 156.131Z" fill="#E6435C"/>
<path d="M495.243 163.848C495.243 163.848 518.928 165.283 539.384 162.591L539.564 169.411C539.564 169.411 508.701 174.795 494.346 169.411L495.243 163.848Z" fill="#25252B"/>
<path d="M512.469 65.8623C512.111 66.0418 511.931 66.0418 511.752 66.2212C506.728 68.3748 495.603 72.8613 495.603 72.8613C495.064 73.0407 494.526 73.2202 493.808 73.5791C492.373 74.297 490.758 75.3737 489.861 76.4505C490.219 82.0138 491.655 87.936 492.193 94.3965C492.193 94.3965 492.552 99.6009 492.911 106.959C493.27 112.163 493.808 118.444 494.346 124.725C494.705 126.879 494.885 129.032 494.885 131.186C494.705 134.057 494.526 137.288 494.167 140.518C494.167 140.518 494.167 140.518 494.167 140.697C494.167 141.415 493.988 142.313 493.988 143.03C493.449 149.67 492.552 156.669 491.655 163.13C491.475 164.925 491.117 166.54 490.937 168.155C489.861 175.513 488.784 181.614 487.887 184.306C487.528 185.563 488.784 186.639 489.861 187.357L491.834 188.434L496.5 191.126C496.5 191.126 497.397 179.999 498.294 170.129C498.294 169.949 498.294 169.77 498.294 169.77C498.294 169.591 498.294 169.591 498.294 169.411C498.473 167.975 498.473 166.54 498.653 165.283C498.653 165.104 498.653 164.925 498.653 164.745C498.653 164.386 498.653 164.027 498.653 163.668C498.832 161.515 499.012 159.541 499.012 158.284C499.73 150.209 502.062 139.441 502.959 128.853C503.498 122.213 504.215 115.573 504.933 109.651C505.651 103.728 506.189 98.5241 506.728 94.576C507.804 85.9619 509.06 79.3218 510.137 74.4764C511.393 69.0926 512.469 66.0418 512.469 65.8623C512.469 65.8623 512.649 65.8623 512.469 65.8623Z" fill="#5E5F70"/>
<path d="M514.085 70.3487C514.085 70.3487 513.905 76.4504 519.109 76.4504C524.313 76.4504 528.26 71.4255 528.26 71.4255L519.647 73.9379L514.264 69.6309L514.085 70.3487Z" fill="#CAC7D1"/>
<path d="M531.309 65.5032C525.029 71.7843 514.981 66.7594 515.339 64.9648C515.698 63.3497 515.339 55.6329 515.339 55.6329C515.339 55.6329 530.412 51.1464 530.053 54.1972C529.874 55.4534 530.053 57.4275 530.412 59.4016C530.412 59.7605 530.412 60.1194 530.591 60.4783C530.95 62.9908 531.309 65.5032 531.309 65.5032Z" fill="#EEA987"/>
<path d="M514.98 70.7075L519.466 73.9378C519.466 73.9378 515.519 66.0416 515.339 62.9907L514.98 70.7075Z" fill="#A09EA6"/>
<path d="M515.519 62.9907L512.469 65.8621L509.598 75.3735L514.981 70.7075L515.519 62.9907Z" fill="#EAE6F2"/>
<path d="M516.059 65.6826C516.059 65.6826 517.494 69.9897 519.468 73.9378C519.468 73.9378 523.954 69.6308 525.389 68.1951C527.004 66.7594 516.059 65.6826 516.059 65.6826Z" fill="#EEA987"/>
<path d="M524.312 69.272L519.467 73.938C519.467 73.938 525.209 73.3996 526.285 72.3228L524.312 69.272Z" fill="#A09EA6"/>
<path d="M530.593 60.6577C530.593 60.6577 526.825 67.1183 524.312 69.2718L528.798 76.4502L535.438 63.5291L530.593 60.6577Z" fill="#EAE6F2"/>
<path d="M553.56 164.206C553.021 162.591 552.483 161.156 552.124 159.361C551.227 156.669 550.509 153.798 549.791 151.106C549.433 149.491 548.894 147.876 548.715 146.26C548.894 146.081 549.074 145.901 549.074 145.722L549.791 145.004C558.943 134.954 568.094 124.366 567.735 122.392C567.376 119.341 561.275 73.5789 558.584 71.7843C557.148 70.887 547.1 67.4772 541.358 65.5031C540.999 65.3237 540.82 65.3237 540.461 65.1442H540.281H540.102C538.846 64.6058 536.334 63.7085 535.437 63.3496C535.437 63.3496 535.437 63.3496 535.437 63.5291C535.257 63.7085 535.078 64.2469 534.719 64.7853C532.207 70.528 525.029 90.6276 524.491 106.6C524.312 112.163 525.926 123.828 527.183 133.339C527.721 137.467 528.259 141.056 528.798 144.645C524.85 148.593 521.441 152.003 519.826 154.157C519.108 155.233 518.749 155.951 518.929 156.131C519.108 156.31 519.287 156.669 519.826 157.028C520.005 157.207 520.185 157.207 520.364 157.387C522.338 159.002 525.927 161.694 528.259 163.489C528.618 163.668 528.797 163.848 528.977 164.027C529.695 164.386 530.054 164.745 530.412 164.924C530.592 164.924 530.592 165.104 530.592 165.104L531.13 164.565C531.31 164.386 531.31 164.386 531.489 164.206C531.489 164.565 531.489 164.924 531.668 165.283C531.848 166.181 531.848 167.257 532.027 168.155C532.027 168.872 532.207 169.59 532.207 170.129C533.642 181.794 534.539 190.049 534.539 190.049L551.048 182.153C551.227 182.153 551.406 181.973 551.406 181.973C554.098 180.178 557.148 174.974 556.251 172.282C555.533 170.129 554.636 167.257 553.56 164.206ZM547.279 125.443C547.818 118.265 548.535 108.394 549.433 105.343C549.433 105.343 550.33 109.83 551.227 118.265C551.227 119.7 549.791 122.392 547.279 125.443Z" fill="#5E5F70"/>
<path d="M512.127 172.093L523.248 171.798L523.029 163.546L511.909 163.841L512.127 172.093Z" fill="#3A4066"/>
<path d="M549.791 151.285L534.898 161.156L534.539 161.335L548.535 146.44C548.894 148.055 549.432 149.67 549.791 151.285Z" fill="#3B3D47"/>
<path d="M530.592 60.2991C524.312 64.7856 518.57 58.1455 518.211 57.7866C525.03 62.2731 530.413 59.2223 530.413 59.2223C530.592 59.5812 530.592 59.9401 530.592 60.2991Z" fill="#A77860"/>
<path d="M676.833 87.936L675.935 93.3198C675.576 93.3198 639.51 89.0127 582.808 150.568C570.248 164.207 552.125 170.488 529.336 169.052C484.836 166.181 436.568 135.314 421.675 114.317C411.447 99.9598 399.424 92.6019 385.787 92.0636C360.307 91.1662 327.83 114.137 289.43 160.617C276.69 176.051 265.386 183.23 255.337 182.512C241.7 181.614 232.37 166.719 223.398 152.362C214.426 138.005 205.275 123.29 192.355 122.392C181.769 121.675 169.208 129.75 154.136 147.337C130.091 175.333 102.817 190.408 73.2099 192.203C71.0566 192.382 69.0829 192.382 67.1091 192.382C38.5787 192.382 14.5343 180.358 0 171.026V164.386C14.5343 174.077 41.6291 188.613 72.851 186.639C101.022 184.845 127.041 170.488 150.008 143.569C166.337 124.546 180.333 115.752 192.714 116.65C208.325 117.906 218.374 133.698 227.884 149.132C236.497 162.95 244.751 176.051 255.696 176.769C263.95 177.307 273.64 170.847 285.303 156.669C325.497 108.215 358.334 85.244 385.967 86.3208C401.398 86.8592 414.856 95.1144 426.16 110.907C440.156 130.468 487.528 160.797 529.874 163.309C551.048 164.566 567.556 159.002 579.04 146.44C638.074 82.9111 675.397 87.7565 676.833 87.936Z" fill="#BCC0CF"/>
<path d="M692.085 150.029L730.844 141.236L705.184 26.7397L666.426 35.5333C644.535 40.3787 630.898 62.0935 635.742 83.9877L643.638 119.341C648.662 141.236 670.374 154.875 692.085 150.029Z" fill="#DBDFF0"/>
<path d="M641.465 85.7614L631.311 88.043L637.958 117.635L648.112 115.353L641.465 85.7614Z" fill="#DBDFF0"/>
<path d="M523.415 176.769C523.415 176.769 524.671 175.872 524.851 175.154C524.851 175.154 525.389 173.897 525.748 173C525.927 172.641 525.927 172.462 526.107 172.282C526.466 171.744 527.542 170.488 528.081 168.873C528.619 167.257 529.875 160.976 529.875 160.976L524.851 159.002L521.083 156.131C521.083 156.131 513.008 163.309 512.29 164.745C512.29 164.924 512.111 165.104 512.111 165.104C511.752 166.36 511.931 167.616 511.752 168.334C511.752 168.514 511.393 171.385 511.931 171.923C512.649 172.821 513.546 173 514.264 172.821C514.264 172.821 515.879 174.436 517.314 174.436C517.314 174.436 518.75 175.872 520.544 175.513C520.724 176.051 522.339 177.307 523.415 176.769Z" fill="#EFAA88"/>
<path d="M530.772 165.463C530.772 165.463 522.518 160.079 518.57 156.131L536.334 137.646L549.792 145.363L530.772 165.463Z" fill="#5E5F70"/>
<path d="M427.417 121.316C427.417 121.316 434.236 119.162 434.774 120.239C435.312 121.316 434.774 122.034 434.774 122.034L438.004 122.393C438.004 122.393 439.977 123.828 437.824 125.623C437.824 125.623 439.798 126.879 437.465 128.315C437.465 128.315 438.363 129.75 437.465 130.468C436.568 131.366 432.082 132.442 432.082 132.442C432.082 132.442 431.006 132.263 430.826 130.468C430.826 130.468 429.211 129.93 429.211 128.135C429.211 128.135 427.955 127.417 428.135 125.623C428.135 125.623 425.443 123.828 426.699 121.675C426.699 121.495 427.058 121.316 427.417 121.316Z" fill="#DB9C7C"/>
<path d="M438.542 116.649C438.542 116.649 434.954 120.059 433.877 122.751C433.698 123.289 433.518 124.007 433.877 124.546C434.415 125.084 435.671 124.905 437.286 123.469C438.901 122.033 441.593 120.956 441.593 120.956C441.593 120.956 442.849 119.162 438.542 116.649Z" fill="#EEA886"/>
<path d="M359.232 97.9857C359.232 97.9857 352.413 96.3705 352.054 97.4473C351.695 98.524 352.234 99.0624 352.234 99.0624L349.183 99.6008C349.183 99.6008 347.389 101.216 349.542 102.652C349.542 102.652 347.748 103.908 350.081 105.164C350.081 105.164 349.183 106.6 350.26 107.318C351.157 108.035 355.643 108.933 355.643 108.933C355.643 108.933 356.72 108.753 356.72 106.959C356.72 106.959 358.335 106.241 358.155 104.626C358.155 104.626 359.232 103.908 359.052 102.113C359.052 102.113 361.564 100.319 360.129 98.1651C359.95 98.1651 359.591 97.9857 359.232 97.9857Z" fill="#DB9C7C"/>
<path d="M348.285 94.2168C348.285 94.2168 351.874 97.2676 353.13 99.9595C353.489 100.498 353.668 101.216 353.13 101.575C352.771 102.113 351.515 102.113 349.721 100.857C348.106 99.6006 345.414 98.7033 345.414 98.7033C345.414 98.7033 344.158 96.7292 348.285 94.2168Z" fill="#EEA886"/>
<path d="M299.838 153.798C299.838 153.798 298.582 153.619 298.044 153.26C298.044 153.26 297.146 152.542 296.429 152.004C296.249 151.824 296.07 151.645 295.89 151.645C295.352 151.286 293.916 150.927 292.84 149.85C291.584 148.773 287.995 144.646 287.995 144.646L290.866 140.877L293.199 137.826C293.199 137.826 301.812 138.723 303.068 139.441C303.247 139.441 303.247 139.621 303.427 139.621C304.324 140.518 304.683 141.415 305.221 141.954C305.4 142.133 306.836 144.107 306.836 144.646C306.656 145.543 306.118 146.261 305.4 146.44C305.4 146.44 304.862 148.414 303.785 149.132C303.785 149.132 303.427 150.927 301.812 151.465C301.453 151.824 300.915 153.619 299.838 153.798Z" fill="#EEA886"/>
<path d="M247.622 68.1953C247.622 68.1953 237.574 74.4764 236.676 85.0646C235.779 95.6528 237.394 99.4215 238.471 103.908C239.547 108.215 240.803 120.059 240.983 121.316C241.162 122.572 241.88 138.723 246.545 142.313C251.211 145.902 288.354 147.696 288.533 148.773C288.713 149.85 290.866 136.929 290.866 136.929C290.866 136.929 271.308 135.493 268.616 134.237C264.31 132.442 256.773 131.724 256.414 127.238C256.055 122.213 254.261 105.164 254.261 102.472C254.441 99.9598 255.517 68.3748 247.622 68.1953Z" fill="#FFA15B"/>
<path d="M113.583 183.588C113.583 183.588 112.327 182.87 111.968 182.332C111.968 182.332 111.43 181.255 110.892 180.537C110.712 180.358 110.533 180.179 110.533 179.999C110.174 179.461 108.918 178.563 108.2 176.948C107.482 175.333 106.047 167.975 106.047 167.975L109.815 166.181L113.045 163.848C113.045 163.848 121.658 169.59 122.555 171.026C122.555 171.206 122.734 171.206 122.734 171.385C123.273 172.641 123.273 173.718 123.452 174.436C123.452 174.615 124.17 177.128 123.811 177.846C123.273 178.743 122.376 179.102 121.658 179.102C121.658 179.102 120.402 180.717 118.966 181.076C118.966 181.076 117.89 182.691 115.916 182.512C116.095 182.332 114.839 183.768 113.583 183.588Z" fill="#EEA886"/>
<path d="M77.1578 69.0925C79.311 68.7336 90.2566 71.9639 87.9239 81.2958C85.4118 91.3456 83.2586 107.138 83.2586 110.368C83.2586 113.06 81.1053 129.75 85.4118 134.775C87.0267 136.57 98.5106 149.132 99.0489 150.209C99.7667 151.285 116.993 165.642 116.993 165.642L105.509 174.077C105.509 174.077 76.44 148.414 74.2868 145.722C72.1336 143.21 67.2888 139.441 65.1355 131.006C61.5468 117.547 64.7767 99.6008 64.5972 94.7554C64.4178 93.1402 65.4944 71.2461 77.1578 69.0925Z" fill="#67AAF5"/>
<path d="M171.9 130.647C171.9 130.647 165.799 128.673 164.005 129.929C162.211 131.006 164.364 131.904 164.364 131.904C164.364 131.904 162.211 131.006 161.493 132.621C160.596 134.237 163.287 134.954 163.287 134.954C163.287 134.954 161.493 134.775 161.313 136.57C161.134 138.364 163.287 138.544 163.287 138.544C163.287 138.544 160.596 139.62 162.39 141.235C165.261 144.107 169.747 143.389 169.747 143.389C169.747 143.389 170.823 143.21 170.823 141.415C170.823 141.415 173.515 141.056 172.618 138.005C172.618 138.005 174.95 135.852 172.797 134.237C172.977 134.416 175.309 132.083 171.9 130.647Z" fill="#DB9C7C"/>
</svg>
