<svg width="91" height="26" viewBox="0 0 91 26" fill="none" xmlns="http://www.w3.org/2000/svg">
<path d="M44.1357 14.0869H44.7832C45.3883 14.0869 45.8411 13.9684 46.1416 13.7314C46.4421 13.4902 46.5923 13.1411 46.5923 12.6841C46.5923 12.2228 46.4653 11.8822 46.2114 11.6621C45.9618 11.4421 45.5682 11.332 45.0308 11.332H44.1357V14.0869ZM48.5791 12.6143C48.5791 13.613 48.266 14.3768 47.6396 14.9058C47.0176 15.4347 46.131 15.6992 44.98 15.6992H44.1357V19H42.168V9.71973H45.1323C46.258 9.71973 47.1128 9.96305 47.6968 10.4497C48.285 10.9321 48.5791 11.6536 48.5791 12.6143ZM58.7544 14.3472C58.7544 15.8833 58.3735 17.064 57.6118 17.8892C56.8501 18.7144 55.7583 19.127 54.3364 19.127C52.9146 19.127 51.8228 18.7144 51.061 17.8892C50.2993 17.064 49.9185 15.8791 49.9185 14.3345C49.9185 12.7899 50.2993 11.6113 51.061 10.7988C51.827 9.9821 52.923 9.57373 54.3491 9.57373C55.7752 9.57373 56.8649 9.98421 57.6182 10.8052C58.3757 11.6261 58.7544 12.8068 58.7544 14.3472ZM51.9814 14.3472C51.9814 15.384 52.1782 16.1647 52.5718 16.6895C52.9653 17.2142 53.5535 17.4766 54.3364 17.4766C55.9064 17.4766 56.6914 16.4334 56.6914 14.3472C56.6914 12.2567 55.9106 11.2114 54.3491 11.2114C53.5662 11.2114 52.9759 11.4759 52.5781 12.0049C52.1803 12.5296 51.9814 13.3104 51.9814 14.3472ZM64.6069 19L62.3726 11.7192H62.3154C62.3958 13.2004 62.436 14.1885 62.436 14.6836V19H60.6777V9.71973H63.3564L65.5527 16.8164H65.5908L67.9204 9.71973H70.5991V19H68.7646V14.6074C68.7646 14.4001 68.7668 14.161 68.771 13.8901C68.7795 13.6193 68.8091 12.8999 68.8599 11.7319H68.8027L66.4097 19H64.6069ZM81.3647 14.3472C81.3647 15.8833 80.9839 17.064 80.2222 17.8892C79.4604 18.7144 78.3687 19.127 76.9468 19.127C75.5249 19.127 74.4331 18.7144 73.6714 17.8892C72.9097 17.064 72.5288 15.8791 72.5288 14.3345C72.5288 12.7899 72.9097 11.6113 73.6714 10.7988C74.4373 9.9821 75.5334 9.57373 76.9595 9.57373C78.3856 9.57373 79.4753 9.98421 80.2285 10.8052C80.986 11.6261 81.3647 12.8068 81.3647 14.3472ZM74.5918 14.3472C74.5918 15.384 74.7886 16.1647 75.1821 16.6895C75.5757 17.2142 76.1639 17.4766 76.9468 17.4766C78.5168 17.4766 79.3018 16.4334 79.3018 14.3472C79.3018 12.2567 78.521 11.2114 76.9595 11.2114C76.1766 11.2114 75.5863 11.4759 75.1885 12.0049C74.7907 12.5296 74.5918 13.3104 74.5918 14.3472ZM87.23 11.2241C86.4894 11.2241 85.916 11.5034 85.5098 12.062C85.1035 12.6164 84.9004 13.3908 84.9004 14.3853C84.9004 16.4546 85.6769 17.4893 87.23 17.4893C87.8817 17.4893 88.6709 17.3263 89.5977 17.0005V18.6509C88.8359 18.9683 87.9854 19.127 87.0459 19.127C85.696 19.127 84.6634 18.7186 83.9482 17.9019C83.2331 17.0809 82.8755 15.9045 82.8755 14.3726C82.8755 13.4077 83.0511 12.5635 83.4023 11.8398C83.7536 11.112 84.2572 10.5555 84.9131 10.1704C85.5732 9.78109 86.3455 9.58643 87.23 9.58643C88.1313 9.58643 89.0369 9.80436 89.9468 10.2402L89.312 11.8398C88.965 11.6748 88.6159 11.5309 88.2646 11.4082C87.9134 11.2855 87.5685 11.2241 87.23 11.2241Z" fill="#002852"/>
<path d="M25.2375 4.7168H4.90226C4.66852 4.7168 4.5127 4.91158 4.5127 5.10636V19.1306C4.5127 19.3254 4.66852 19.5202 4.90226 19.5202H20.6017L24.9258 23.8833C25.0037 23.9612 25.1206 24.0002 25.2375 24.0002C25.3933 24.0002 25.5491 23.9223 25.5881 23.7665C25.627 23.7275 25.627 23.6496 25.627 23.5717V19.1696C25.627 19.1696 25.627 19.1696 25.627 19.1306V5.10636C25.627 4.91158 25.4322 4.7168 25.2375 4.7168ZM24.8479 18.4684C24.8089 18.4684 24.8089 18.5073 24.8479 18.4684V22.6757L21.0302 18.858C20.9523 18.78 20.8744 18.7411 20.7575 18.7411H5.29182V5.49592H24.8479V18.4684Z" fill="#002852"/>
<path d="M0.773145 17.4553C0.734189 17.4553 0.734184 17.4553 0.695228 17.4553C0.461489 17.4553 0.305664 17.2605 0.305664 17.0657C0.305664 17.0267 0.305664 17.0267 0.305664 16.9878V17.0657C0.305664 17.2605 0.461489 17.4553 0.695228 17.4553C0.734184 17.4553 0.734189 17.4553 0.773145 17.4553Z" fill="#002852"/>
<path d="M19.3552 1.98966V3.43105C19.3552 3.62583 19.1604 3.82061 18.9656 3.82061C18.7709 3.82061 18.5761 3.62583 18.5761 3.43105V2.37922H1.04573V12.43V12.4689V16.1308L3.14937 14.0272C3.30519 13.8713 3.53893 13.8713 3.69476 14.0272C3.85058 14.183 3.85058 14.4167 3.69476 14.5726L0.928852 17.3385C0.928852 17.3774 0.889894 17.3774 0.889894 17.3774C0.850937 17.4164 0.773027 17.4553 0.734071 17.4553C0.695114 17.4553 0.695121 17.4553 0.656165 17.4553C0.422427 17.4553 0.266602 17.2606 0.266602 17.0658V13.0922V13.0533V1.98966C0.266602 1.75592 0.422427 1.6001 0.656165 1.6001H18.9656C19.1994 1.6001 19.3552 1.75592 19.3552 1.98966Z" fill="#002852"/>
<path d="M18.4983 10.4821C18.4983 11.9235 17.3296 13.0922 15.8882 13.0922H15.4597C15.226 13.0922 15.0312 13.1701 14.8754 13.326C14.7195 13.4818 14.6416 13.6766 14.6416 13.9103V14.8063C14.6416 15.04 14.4858 15.1959 14.2521 15.1959C14.0183 15.1959 13.8625 15.04 13.8625 14.8063V13.9103C13.8625 13.4818 14.0183 13.0922 14.33 12.7806C14.6416 12.4689 15.0312 12.3131 15.4597 12.3131H15.8882C16.9011 12.3131 17.7192 11.495 17.7192 10.4821C17.7192 9.46928 16.9011 8.6512 15.8882 8.6512H15.1091C14.6027 8.6512 14.1741 8.84598 13.8235 9.19659C13.4729 9.54719 13.2782 10.0147 13.2782 10.4821C13.2782 10.7159 13.0834 10.8717 12.8886 10.8717C12.6548 10.8717 12.499 10.7159 12.499 10.4821C12.499 9.78093 12.7717 9.11867 13.2782 8.6512C13.7456 8.14477 14.4079 7.87207 15.1091 7.87207H15.8882C17.3296 7.91103 18.4983 9.07972 18.4983 10.4821Z" fill="#002852"/>
<path d="M14.2909 16.6762C14.0572 16.6762 13.9014 16.5203 13.9014 16.2866V16.1308C13.9014 15.897 14.0572 15.7412 14.2909 15.7412C14.5247 15.7412 14.6805 15.897 14.6805 16.1308V16.2866C14.6805 16.5203 14.4857 16.6762 14.2909 16.6762Z" fill="#002852"/>
</svg>
