<svg width="165" height="75" viewBox="0 0 165 75" fill="none" xmlns="http://www.w3.org/2000/svg">
<path d="M45.2343 28.2759H47.5949V32.9965L50.0461 31.9979V33.9947C49.925 34.0559 49.7917 34.1128 49.647 34.1673C49.5014 34.2217 49.3352 34.2854 49.1474 34.358C48.9597 34.4305 48.7416 34.5187 48.4935 34.6216C48.2454 34.7246 47.9459 34.8482 47.5949 34.9933V38.9883H53.7681V40.9855H45.2343V35.992L43.7817 36.5366V34.5394L45.2343 33.9947V28.2759Z" fill="black"/>
<path d="M61.5757 31.7256H63.8455V40.9858H62.3022L62.0296 39.8965H61.8478C61.7027 40.1386 61.5271 40.3504 61.3213 40.5319C61.1276 40.7015 60.904 40.8491 60.6496 40.977C60.3952 41.104 60.0986 41.1672 59.7598 41.1672H58.1258C57.7385 41.1672 57.3841 41.104 57.0635 40.977C56.7424 40.8491 56.4644 40.6745 56.2285 40.4504C55.9927 40.2264 55.8109 39.9661 55.6839 39.6691C55.5564 39.3725 55.4932 39.0552 55.4932 38.7156V31.7256H57.763V38.3528C57.763 38.6312 57.8507 38.8523 58.0262 39.0151C58.2013 39.1784 58.4464 39.2598 58.7616 39.2598H60.1235C60.3779 39.2598 60.5956 39.2088 60.777 39.1058C60.9588 39.0037 61.1099 38.8852 61.231 38.7514C61.3639 38.6063 61.479 38.4435 61.5757 38.262V31.7256Z" fill="black"/>
<path d="M70.5258 35.2663L72.2509 31.7257H74.5203V32.6332L72.4323 36.1742L74.7021 40.0776V40.9855H72.4323L70.5258 37.172H68.8011V40.9855H66.5312V28.2759H68.8011V35.2663H70.5258Z" fill="black"/>
<path d="M84.4717 40.9862H82.9284L82.6558 39.8969H82.474C82.3284 40.1391 82.1529 40.3509 81.9475 40.5323C81.7538 40.7019 81.5298 40.8495 81.2754 40.9774C81.021 41.1044 80.7244 41.1677 80.386 41.1677H78.9334C78.5461 41.1677 78.1921 41.1044 77.8711 40.9774C77.5504 40.8495 77.272 40.6749 77.0361 40.4509C76.8003 40.2268 76.6189 39.9665 76.4915 39.6695C76.3645 39.3729 76.3008 39.0556 76.3008 38.716V37.7182C76.3008 37.3786 76.3645 37.0613 76.4915 36.7647C76.6189 36.4681 76.7999 36.2078 77.0361 35.9834C77.2724 35.7602 77.5509 35.5838 77.8711 35.4568C78.1921 35.3299 78.5461 35.2666 78.9334 35.2666H82.2019V34.6312C82.2019 33.965 81.869 33.6321 81.2032 33.6321H77.118V31.7256H81.8386C82.2255 31.7256 82.5799 31.7889 82.9009 31.9159C83.2216 32.0433 83.5 32.2188 83.7359 32.4424C83.9721 32.6664 84.1531 32.9267 84.2805 33.2233C84.4075 33.5203 84.4713 33.838 84.4713 34.1768V40.9862H84.4717ZM80.7493 39.2607C81.0037 39.2607 81.2214 39.2096 81.4032 39.1067C81.585 39.0046 81.7361 38.886 81.8572 38.7523C81.9901 38.6072 82.1048 38.4443 82.2019 38.2629V37.1727H79.4785C79.1996 37.1727 78.979 37.255 78.8157 37.4183C78.6524 37.5815 78.5706 37.8022 78.5706 38.0806V38.3532C78.5706 38.6316 78.652 38.8527 78.8157 39.0156C78.9794 39.1784 79.1996 39.2603 79.4785 39.2603H80.7493V39.2607Z" fill="black"/>
<path d="M92.279 38.2629C92.279 37.7908 92.0368 37.5178 91.5525 37.4453L89.0106 36.9913C88.7444 36.9436 88.4841 36.8495 88.2296 36.7103C87.9752 36.5711 87.7512 36.3922 87.558 36.1745C87.3643 35.956 87.2099 35.7083 87.0947 35.4294C86.9796 35.1506 86.9222 34.8552 86.9222 34.5396V34.1768C86.9222 33.838 86.9859 33.5203 87.1129 33.2233C87.2403 32.9272 87.4213 32.6668 87.6576 32.4424C87.8938 32.2188 88.1723 32.0433 88.4925 31.9159C88.8136 31.7889 89.1675 31.7256 89.5548 31.7256H94.1852V33.0875L93.6405 33.6321H90.0999C89.821 33.6321 89.6004 33.7081 89.4371 33.8591C89.2734 34.0106 89.192 34.1768 89.192 34.3582C89.192 34.6244 89.2435 34.8303 89.3464 34.9755C89.4489 35.1214 89.6396 35.2176 89.9181 35.2662L92.5507 35.7201C93.0954 35.8167 93.5641 36.0737 93.9577 36.4913C94.3514 36.909 94.548 37.4389 94.548 38.0802V38.5342C94.548 38.8738 94.4843 39.1911 94.3573 39.4877C94.2299 39.7843 94.0489 40.0446 93.8126 40.2682C93.5764 40.4922 93.2979 40.6677 92.9777 40.7947C92.6566 40.9225 92.3022 40.9858 91.9149 40.9858H86.8311V39.0788H91.4614C92.0065 39.0793 92.279 38.8076 92.279 38.2629Z" fill="black"/>
<path d="M99.051 28.0034V30.5454H96.7812V28.0034H99.051ZM99.051 31.7258V40.9861H96.7812V31.7258H99.051Z" fill="black"/>
<path d="M109.672 33.9952V37.264H103.771V38.1711C103.771 38.4496 103.859 38.6706 104.035 38.8343C104.21 38.9976 104.455 39.079 104.77 39.079H109.309V40.986H104.134C103.747 40.986 103.392 40.9227 103.072 40.7949C102.751 40.6679 102.473 40.4924 102.237 40.2684C102.001 40.0452 101.819 39.7849 101.692 39.4879C101.565 39.1913 101.501 38.874 101.501 38.5344V33.9952C101.501 33.6564 101.565 33.3387 101.692 33.0421C101.819 32.7455 102.001 32.4856 102.237 32.2612C102.473 32.0367 102.751 31.8616 103.072 31.7346C103.392 31.6072 103.747 31.5439 104.134 31.5439H107.039C107.427 31.5439 107.781 31.6072 108.102 31.7346C108.422 31.8616 108.701 32.0371 108.937 32.2612C109.173 32.4852 109.354 32.7451 109.482 33.0421C109.609 33.3387 109.672 33.6564 109.672 33.9952ZM103.771 34.3584V35.3571H107.403V34.3584C107.403 34.08 107.314 33.8593 107.139 33.6956C106.963 33.5323 106.718 33.4505 106.404 33.4505H104.77C104.455 33.4505 104.21 33.5323 104.035 33.6956C103.859 33.8593 103.771 34.08 103.771 34.3584Z" fill="black"/>
<path d="M117.753 35.6299H117.571L115.937 40.9859H113.576L111.307 32.6336V31.7261H113.758L114.938 38.1714H115.12L116.572 32.9973H118.751L120.204 38.1714H120.385L121.566 31.7261H124.017V32.6336L121.747 40.9859H119.387L117.753 35.6299Z" fill="black"/>
<path d="M128.465 28.0034V30.5454H126.195V28.0034H128.465ZM128.465 31.7258V40.9861H126.195V31.7258H128.465Z" fill="black"/>
<path d="M133.076 34.5401V38.1713C133.076 38.4498 133.164 38.6709 133.34 38.8346C133.515 38.9978 133.76 39.0793 134.075 39.0793H138.251V40.9862H133.439C133.052 40.9862 132.698 40.923 132.377 40.7951C132.056 40.6681 131.778 40.4926 131.542 40.2686C131.306 40.0454 131.124 39.7851 130.997 39.4881C130.87 39.1915 130.807 38.8742 130.807 38.5346V34.1768C130.807 33.838 130.87 33.5203 130.997 33.2233C131.124 32.9272 131.306 32.6668 131.542 32.4424C131.778 32.2188 132.056 32.0433 132.377 31.9159C132.698 31.7889 133.052 31.7256 133.439 31.7256H138.251V33.0875L137.706 33.6321H134.075C133.76 33.6321 133.515 33.7136 133.34 33.8773C133.164 34.041 133.076 34.262 133.076 34.5401Z" fill="black"/>
<path d="M147.602 39.0793V40.9862H139.977V39.0793L144.607 33.814V33.6321H140.703L140.158 33.0875V31.7256H147.603V33.6321L142.973 38.8978V39.0793H147.602Z" fill="black"/>
<path d="M46.2061 56.8713H45.2441V47.8916H49.2209C49.5542 47.8916 49.8601 47.9452 50.1382 48.0519C50.4158 48.1591 50.6533 48.3067 50.8503 48.4949C51.0469 48.6827 51.1984 48.9054 51.3055 49.1619C51.4123 49.418 51.4659 49.7003 51.4659 50.0083V51.7401C51.4659 52.0477 51.4123 52.33 51.3055 52.5869C51.1984 52.843 51.0469 53.0658 50.8503 53.2539C50.6533 53.4421 50.4162 53.5898 50.1382 53.6965C49.8601 53.8037 49.5542 53.8568 49.2209 53.8568H46.2061V56.8713ZM49.2205 48.7257H46.2056V53.0231H49.2205C49.3998 53.0231 49.5665 52.9894 49.7209 52.9206C49.8745 52.8523 50.0095 52.7603 50.1251 52.6451C50.2403 52.5299 50.3322 52.3949 50.4006 52.2409C50.4689 52.087 50.5031 51.9203 50.5031 51.7406V50.0087C50.5031 49.8294 50.4689 49.6627 50.4006 49.5083C50.3322 49.3547 50.2403 49.2197 50.1251 49.1041C50.0095 48.989 49.8745 48.897 49.7209 48.8286C49.5665 48.7599 49.3998 48.7257 49.2205 48.7257Z" fill="black"/>
<path d="M53.1323 49.8798C53.1323 49.5723 53.1855 49.29 53.2926 49.0331C53.3994 48.7766 53.5513 48.5542 53.7479 48.3661C53.9449 48.1783 54.182 48.0307 54.46 47.9235C54.7381 47.8168 55.0439 47.7632 55.3777 47.7632H57.6222C57.9559 47.7632 58.2618 47.8168 58.5394 47.9235C58.8174 48.0307 59.0549 48.1783 59.2515 48.3661C59.4486 48.5542 59.6 48.7766 59.7072 49.0331C59.8139 49.2896 59.8675 49.5719 59.8675 49.8798V54.8827C59.8675 55.1903 59.8139 55.4725 59.7072 55.7295C59.6 55.986 59.4486 56.2087 59.2515 56.3965C59.0549 56.5846 58.8178 56.7323 58.5394 56.839C58.2618 56.9458 57.9559 56.9994 57.6222 56.9994H55.3777C55.0439 56.9994 54.7381 56.9458 54.46 56.839C54.1824 56.7323 53.9449 56.5846 53.7479 56.3965C53.5513 56.2087 53.3994 55.986 53.2926 55.7295C53.1855 55.4729 53.1323 55.1907 53.1323 54.8827V49.8798ZM58.9051 54.8827V49.8798C58.9051 49.7001 58.871 49.5335 58.8026 49.3795C58.7339 49.2255 58.6423 49.0905 58.5267 48.9753C58.4115 48.8601 58.2765 48.7681 58.123 48.6998C57.969 48.6314 57.8019 48.5973 57.6222 48.5973H55.3777C55.1979 48.5973 55.0313 48.6314 54.8769 48.6998C54.7233 48.7681 54.5883 48.8601 54.4731 48.9753C54.3575 49.0905 54.2655 49.2255 54.1972 49.3795C54.1288 49.533 54.0947 49.7001 54.0947 49.8798V54.8827C54.0947 55.0624 54.1288 55.2291 54.1972 55.3831C54.2655 55.5371 54.3575 55.6721 54.4731 55.7873C54.5883 55.9024 54.7233 55.9948 54.8769 56.0628C55.0309 56.1315 55.1979 56.1657 55.3777 56.1657H57.6222C57.8019 56.1657 57.9685 56.1315 58.123 56.0628C58.2765 55.9948 58.4115 55.9024 58.5267 55.7873C58.6423 55.6721 58.7339 55.5371 58.8026 55.3831C58.871 55.2295 58.9051 55.0624 58.9051 54.8827Z" fill="black"/>
<path d="M63.1392 56.8713H62.1772V47.8916H66.1541C66.4874 47.8916 66.7932 47.9452 67.0713 48.0519C67.3489 48.1591 67.5864 48.3067 67.7834 48.4949C67.98 48.6827 68.1315 48.9054 68.2387 49.1619C68.3454 49.418 68.399 49.7003 68.399 50.0083V51.2271C68.399 51.6807 68.3091 52.0418 68.1294 52.311C67.9501 52.5806 67.753 52.7835 67.5396 52.9202C67.2831 53.0915 66.9924 53.2109 66.6675 53.2797L68.6559 56.4869V56.8717H67.694L65.7056 53.3442H63.14V56.8713H63.1392ZM66.1541 48.7257H63.1392V52.5101H66.1541C66.3334 52.5101 66.5 52.4759 66.6544 52.4076C66.808 52.3392 66.943 52.2473 67.0586 52.1317C67.1738 52.0165 67.2658 51.8815 67.3341 51.7279C67.4025 51.5739 67.4366 51.4069 67.4366 51.2271V50.0083C67.4366 49.829 67.4025 49.6623 67.3341 49.5079C67.2658 49.3543 67.1738 49.2193 67.0586 49.1037C66.943 48.9885 66.808 48.8966 66.6544 48.8282C66.5 48.7599 66.3334 48.7257 66.1541 48.7257Z" fill="black"/>
<path d="M73.2083 48.7257V56.8717H72.2464V48.7257H69.4243V47.8916H76.0308V48.4688L75.7743 48.7253H73.2083V48.7257Z" fill="black"/>
<path d="M81.4819 56.8713H80.52V47.8916H84.4968C84.8301 47.8916 85.136 47.9452 85.414 48.0519C85.6916 48.1591 85.9292 48.3067 86.1262 48.4949C86.3228 48.6827 86.4743 48.9054 86.5814 49.1619C86.6882 49.418 86.7417 49.7003 86.7417 50.0083V51.7401C86.7417 52.0477 86.6882 52.33 86.5814 52.5869C86.4743 52.843 86.3228 53.0658 86.1262 53.2539C85.9292 53.4421 85.6921 53.5898 85.414 53.6965C85.136 53.8037 84.8301 53.8568 84.4968 53.8568H81.4819V56.8713ZM84.4964 48.7257H81.4815V53.0231H84.4964C84.6757 53.0231 84.8424 52.9894 84.9968 52.9206C85.1503 52.8523 85.2854 52.7603 85.401 52.6451C85.5161 52.5299 85.6081 52.3949 85.6765 52.2409C85.7448 52.087 85.779 51.9203 85.779 51.7406V50.0087C85.779 49.8294 85.7448 49.6627 85.6765 49.5083C85.6081 49.3547 85.5161 49.2197 85.401 49.1041C85.2854 48.989 85.1503 48.897 84.9968 48.8286C84.8428 48.7599 84.6757 48.7257 84.4964 48.7257Z" fill="black"/>
<path d="M88.2812 55.2036V51.9968C88.2812 51.7403 88.3281 51.5027 88.4226 51.2846C88.5167 51.0665 88.647 50.8762 88.8141 50.7138C88.9808 50.5513 89.1816 50.4248 89.417 50.3353C89.6524 50.2459 89.9153 50.2012 90.2059 50.2012H91.8096C92.0998 50.2012 92.3631 50.2459 92.5985 50.3353C92.8335 50.4252 93.0343 50.5518 93.2014 50.7138C93.3685 50.8758 93.4984 51.0665 93.5929 51.2846C93.687 51.5031 93.7339 51.7403 93.7339 51.9968V55.2036C93.7339 55.4601 93.687 55.6977 93.5929 55.9158C93.4984 56.1343 93.3685 56.3246 93.2014 56.487C93.0343 56.6495 92.8335 56.7756 92.5985 56.865C92.3627 56.9549 92.0998 56.9996 91.8096 56.9996H90.2059C89.59 56.9996 89.1153 56.8288 88.782 56.4866C88.4483 56.1449 88.2812 55.7171 88.2812 55.2036ZM89.1795 51.9968V55.2036C89.1795 55.4943 89.2774 55.7386 89.4744 55.9348C89.671 56.1318 89.9148 56.2297 90.2055 56.2297H91.8092C92.0994 56.2297 92.3437 56.1318 92.5399 55.9348C92.7369 55.7382 92.8352 55.4943 92.8352 55.2036V51.9968C92.8352 51.7061 92.7369 51.4622 92.5399 51.2656C92.3433 51.069 92.0994 50.9707 91.8092 50.9707H90.2055C89.9148 50.9707 89.6706 51.069 89.4744 51.2656C89.2774 51.4626 89.1795 51.7061 89.1795 51.9968Z" fill="black"/>
<path d="M95.6572 55.0753V47.8916H96.555V55.0753C96.555 55.3659 96.6533 55.6102 96.8499 55.8064C97.047 56.003 97.2904 56.1013 97.5811 56.1013H97.7735V56.8709H97.5811C97.2904 56.8709 97.0271 56.8261 96.7921 56.7363C96.5571 56.6464 96.3563 56.5203 96.1892 56.3582C96.0222 56.1962 95.8918 56.0051 95.7977 55.787C95.7036 55.5689 95.6572 55.3322 95.6572 55.0753Z" fill="black"/>
<path d="M99.4414 52.1247C99.4414 52.3812 99.5072 52.5799 99.6405 52.7213C99.7726 52.8622 99.9844 52.9626 100.276 53.0225L102.135 53.4073C102.588 53.5018 102.937 53.6811 103.181 53.946C103.425 54.2114 103.546 54.5877 103.546 55.075C103.546 55.3315 103.5 55.5691 103.406 55.7872C103.311 56.0053 103.181 56.196 103.014 56.3584C102.847 56.5209 102.646 56.647 102.411 56.7365C102.176 56.8263 101.912 56.871 101.622 56.871H98.4795V56.1015H101.622C101.912 56.1015 102.157 56.0032 102.353 55.8066C102.55 55.61 102.648 55.3661 102.648 55.0755C102.648 54.8189 102.582 54.6202 102.449 54.4789C102.317 54.338 102.105 54.2376 101.814 54.1776L99.954 53.7925C99.5009 53.6984 99.1524 53.5191 98.9086 53.2541C98.6647 52.9892 98.5428 52.6124 98.5428 52.1251C98.5428 51.6037 98.7183 51.1737 99.0689 50.8358C99.4195 50.4979 99.8857 50.3291 100.467 50.3291H103.353V50.8421L103.097 51.0986H100.467C100.177 51.0986 99.9325 51.1969 99.7363 51.3935C99.5397 51.5906 99.4414 51.834 99.4414 52.1247Z" fill="black"/>
<path d="M107.652 53.0868L109.191 50.3289H110.089V50.7137L108.422 53.4716L110.218 56.4865V56.8713H109.319L107.652 53.8564H105.92V56.8713H105.022V47.8916H105.92V53.0868H107.652Z" fill="black"/>
<path d="M112.526 47.8916V49.4307H111.628V47.8916H112.526ZM112.526 50.3289V56.8713H111.628V50.3289H112.526Z" fill="black"/>
<path d="M117.658 49.8798C117.658 49.5723 117.711 49.29 117.818 49.0331C117.925 48.7766 118.077 48.5542 118.273 48.3661C118.47 48.1783 118.707 48.0307 118.985 47.9235C119.263 47.8168 119.569 47.7632 119.903 47.7632H122.148C122.481 47.7632 122.787 47.8168 123.065 47.9235C123.343 48.0307 123.58 48.1783 123.777 48.3661C123.974 48.5542 124.125 48.7766 124.233 49.0331C124.339 49.2896 124.393 49.5719 124.393 49.8798V54.8827C124.393 55.1903 124.339 55.4725 124.233 55.7295C124.125 55.986 123.974 56.2087 123.777 56.3965C123.58 56.5846 123.343 56.7323 123.065 56.839C122.787 56.9458 122.481 56.9994 122.148 56.9994H119.903C119.569 56.9994 119.263 56.9458 118.985 56.839C118.708 56.7323 118.47 56.5846 118.273 56.3965C118.077 56.2087 117.925 55.986 117.818 55.7295C117.711 55.4729 117.658 55.1907 117.658 54.8827V49.8798ZM123.431 54.8827V49.8798C123.431 49.7001 123.396 49.5335 123.328 49.3795C123.259 49.2255 123.168 49.0905 123.052 48.9753C122.937 48.8601 122.802 48.7681 122.648 48.6998C122.494 48.6314 122.327 48.5973 122.148 48.5973H119.903C119.723 48.5973 119.557 48.6314 119.402 48.6998C119.249 48.7681 119.114 48.8601 118.999 48.9753C118.883 49.0905 118.791 49.2255 118.723 49.3795C118.654 49.533 118.62 49.7001 118.62 49.8798V54.8827C118.62 55.0624 118.654 55.2291 118.723 55.3831C118.791 55.5371 118.883 55.6721 118.999 55.7873C119.114 55.9024 119.249 55.9948 119.402 56.0628C119.556 56.1315 119.723 56.1657 119.903 56.1657H122.148C122.327 56.1657 122.494 56.1315 122.648 56.0628C122.802 55.9948 122.937 55.9024 123.052 55.7873C123.168 55.6721 123.259 55.5371 123.328 55.3831C123.396 55.2295 123.431 55.0624 123.431 54.8827Z" fill="black"/>
<path d="M126.829 52.1249C126.829 52.3814 126.895 52.5802 127.028 52.7215C127.16 52.8624 127.372 52.9628 127.663 53.0227L129.523 53.4075C129.976 53.502 130.325 53.6813 130.569 53.9463C130.812 54.2116 130.934 54.588 130.934 55.0753C130.934 55.3318 130.887 55.5693 130.793 55.7874C130.699 56.0055 130.569 56.1962 130.402 56.3587C130.235 56.5211 130.034 56.6472 129.799 56.7367C129.563 56.8266 129.3 56.8713 129.01 56.8713H125.867V56.1017H129.01C129.3 56.1017 129.544 56.0034 129.741 55.8068C129.938 55.6102 130.036 55.3664 130.036 55.0757C130.036 54.8192 129.97 54.6205 129.837 54.4791C129.704 54.3382 129.493 54.2378 129.202 54.1779L127.342 53.7927C126.889 53.6986 126.54 53.5193 126.296 53.2543C126.052 52.9894 125.93 52.6126 125.93 52.1254C125.93 51.6039 126.106 51.174 126.457 50.836C126.807 50.4981 127.273 50.3293 127.855 50.3293H130.741V50.8424L130.485 51.0989H127.855C127.564 51.0989 127.32 51.1972 127.124 51.3938C126.927 51.5908 126.829 51.8342 126.829 52.1249ZM129.202 47.3145H130.229L128.946 49.3029H128.24L129.202 47.3145Z" fill="black"/>
<path d="M136.001 50.2012V51.0348H134.782C134.543 51.0348 134.331 51.091 134.147 51.2019C133.963 51.3133 133.807 51.4373 133.679 51.574C133.534 51.7369 133.409 51.9204 133.307 52.1259V56.8722H132.409V50.3299H132.986L133.115 51.2276H133.179C133.281 51.0399 133.414 50.8686 133.576 50.7146C133.713 50.5779 133.88 50.4581 134.077 50.3552C134.274 50.2526 134.508 50.2016 134.782 50.2016H136.001V50.2012Z" fill="black"/>
<path d="M137.027 55.2036V51.9968C137.027 51.7403 137.074 51.5027 137.169 51.2846C137.263 51.0665 137.393 50.8762 137.56 50.7138C137.727 50.5513 137.928 50.4248 138.163 50.3353C138.399 50.2459 138.661 50.2012 138.952 50.2012H140.556C140.846 50.2012 141.109 50.2459 141.345 50.3353C141.58 50.4252 141.78 50.5518 141.948 50.7138C142.115 50.8758 142.245 51.0665 142.339 51.2846C142.433 51.5031 142.48 51.7403 142.48 51.9968V55.2036C142.48 55.4601 142.433 55.6977 142.339 55.9158C142.245 56.1343 142.115 56.3246 141.948 56.487C141.78 56.6495 141.58 56.7756 141.345 56.865C141.109 56.9549 140.846 56.9996 140.556 56.9996H138.952C138.336 56.9996 137.861 56.8288 137.528 56.4866C137.194 56.1449 137.027 55.7171 137.027 55.2036ZM137.926 51.9968V55.2036C137.926 55.4943 138.023 55.7386 138.22 55.9348C138.417 56.1318 138.661 56.2297 138.952 56.2297H140.555C140.846 56.2297 141.09 56.1318 141.286 55.9348C141.483 55.7382 141.581 55.4943 141.581 55.2036V51.9968C141.581 51.7061 141.483 51.4622 141.286 51.2656C141.089 51.069 140.846 50.9707 140.555 50.9707H138.952C138.661 50.9707 138.417 51.069 138.22 51.2656C138.023 51.4626 137.926 51.7061 137.926 51.9968Z" fill="black"/>
<path d="M147.354 56.9995H146.2C145.909 56.9995 145.646 56.9548 145.411 56.8649C145.176 56.7751 144.975 56.6489 144.808 56.4869C144.641 56.3245 144.511 56.1342 144.417 55.9157C144.322 55.6976 144.275 55.4604 144.275 55.2035V52.1249C144.275 51.8684 144.322 51.6309 144.417 51.4128C144.511 51.1946 144.641 51.0044 144.808 50.8415C144.975 50.6791 145.176 50.5529 145.411 50.4635C145.647 50.374 145.909 50.3289 146.2 50.3289H148.83V47.8916H149.728V56.8713H149.15L149.022 55.9735H148.958C148.856 56.1612 148.723 56.3325 148.561 56.4865C148.423 56.6232 148.257 56.743 148.06 56.846C147.863 56.9485 147.628 56.9995 147.354 56.9995ZM146.2 56.23H147.354C147.593 56.23 147.805 56.1701 147.989 56.0503C148.173 55.9309 148.329 55.798 148.457 55.6528C148.602 55.482 148.727 55.2896 148.829 55.0757V51.0989H146.2C145.909 51.0989 145.665 51.1972 145.469 51.3938C145.271 51.5908 145.174 51.8342 145.174 52.1249V55.2035C145.174 55.4942 145.271 55.7385 145.469 55.9347C145.665 56.1317 145.909 56.23 146.2 56.23Z" fill="black"/>
<path d="M156.654 56.8714H153.575C152.959 56.8714 152.484 56.7005 152.151 56.3583C151.817 56.0162 151.65 55.5884 151.65 55.0754V51.9968C151.65 51.7403 151.697 51.5027 151.792 51.2846C151.886 51.0665 152.016 50.8762 152.183 50.7138C152.35 50.5513 152.551 50.4248 152.786 50.3353C153.022 50.2459 153.284 50.2012 153.575 50.2012H154.986C155.277 50.2012 155.54 50.2459 155.775 50.3353C156.01 50.4252 156.211 50.5518 156.378 50.7138C156.545 50.8758 156.675 51.0665 156.77 51.2846C156.864 51.5031 156.911 51.7403 156.911 51.9968V53.9852H152.549V55.0754C152.549 55.366 152.647 55.6103 152.844 55.8065C153.041 56.0031 153.284 56.1014 153.575 56.1014H156.654V56.8714ZM152.549 51.9968V53.2152H156.012V51.9968C156.012 51.7061 155.914 51.4622 155.717 51.2656C155.52 51.069 155.277 50.9707 154.986 50.9707H153.575C153.284 50.9707 153.04 51.069 152.844 51.2656C152.647 51.4626 152.549 51.7061 152.549 51.9968Z" fill="black"/>
<path d="M161.466 53.0868L163.005 50.3289H163.903V50.7137L162.235 53.4716L164.031 56.4865V56.8713H163.133L161.466 53.8564H159.734V56.8713H158.836V47.8916H159.734V53.0868H161.466Z" fill="black"/>
<path d="M46.2061 72.819H45.2441V63.8394H49.2209C49.5542 63.8394 49.8601 63.8929 50.1382 63.9997C50.4158 64.1068 50.6533 64.2545 50.8503 64.4427C51.0469 64.6304 51.1984 64.8532 51.3055 65.1097C51.4123 65.3658 51.4659 65.648 51.4659 65.956V67.1749C51.4659 67.6284 51.376 67.9896 51.1963 68.2587C51.017 68.5283 50.8199 68.7313 50.6065 68.8679C50.3499 69.0392 50.0593 69.1586 49.7344 69.2274L51.7228 72.4347V72.8194H50.7609L48.7725 69.292H46.2069V72.819H46.2061ZM49.2205 64.673H46.2056V68.4574H49.2205C49.3998 68.4574 49.5665 68.4233 49.7209 68.3549C49.8745 68.2866 50.0095 68.1946 50.1251 68.079C50.2403 67.9638 50.3322 67.8288 50.4006 67.6752C50.4689 67.5213 50.5031 67.3542 50.5031 67.1745V65.9556C50.5031 65.7763 50.4689 65.6096 50.4006 65.4552C50.3322 65.3017 50.2403 65.1666 50.1251 65.051C50.0095 64.9359 49.8745 64.8439 49.7209 64.7755C49.5665 64.7072 49.3998 64.673 49.2205 64.673Z" fill="black"/>
<path d="M53.2607 71.1514V67.9445C53.2607 67.688 53.3076 67.4505 53.4021 67.2324C53.4962 67.0142 53.6265 66.824 53.7936 66.6615C53.9602 66.4991 54.1611 66.3725 54.3965 66.2831C54.6319 66.1936 54.8948 66.1489 55.1854 66.1489H56.7891C57.0793 66.1489 57.3426 66.1936 57.578 66.2831C57.813 66.373 58.0138 66.4995 58.1809 66.6615C58.348 66.8235 58.4779 67.0142 58.5724 67.2324C58.6665 67.4509 58.7133 67.688 58.7133 67.9445V71.1514C58.7133 71.4079 58.6665 71.6454 58.5724 71.8635C58.4779 72.0821 58.348 72.2723 58.1809 72.4348C58.0138 72.5972 57.813 72.7234 57.578 72.8128C57.3422 72.9027 57.0793 72.9474 56.7891 72.9474H55.1854C54.5695 72.9474 54.0948 72.7765 53.7615 72.4344C53.4278 72.0922 53.2607 71.6648 53.2607 71.1514ZM54.159 67.9445V71.1514C54.159 71.4421 54.2568 71.6863 54.4539 71.8825C54.6505 72.0795 54.8943 72.1774 55.185 72.1774H56.7887C57.0789 72.1774 57.3232 72.0795 57.5194 71.8825C57.7164 71.6859 57.8147 71.4421 57.8147 71.1514V67.9445C57.8147 67.6538 57.7164 67.41 57.5194 67.2134C57.3228 67.0168 57.0789 66.9185 56.7887 66.9185H55.185C54.8943 66.9185 54.6501 67.0168 54.4539 67.2134C54.2573 67.4104 54.159 67.6538 54.159 67.9445Z" fill="black"/>
<path d="M64.9988 72.0493V72.8188H59.8677V72.0493L63.8445 67.1105V67.0464H60.2524L59.9959 66.7899V66.2769H64.9988V67.0464L61.022 71.9851V72.0493H64.9988Z" fill="black"/>
<path d="M69.7451 68.3289L68.2701 72.8187H67.2437L65.5122 66.6611V66.2764H66.41L67.8212 71.5357H67.8854L69.2321 67.1742H70.3227L71.6694 71.5357H71.7331L73.1443 66.2764H74.0426V66.6611L72.3111 72.8187H71.2846L69.8092 68.3289H69.7451Z" fill="black"/>
<path d="M75.1968 71.1514V67.9445C75.1968 67.688 75.2436 67.4505 75.3381 67.2324C75.4322 67.0142 75.5626 66.824 75.7296 66.6615C75.8963 66.4991 76.0971 66.3725 76.3325 66.2831C76.5679 66.1936 76.8308 66.1489 77.1215 66.1489H78.7251C79.0154 66.1489 79.2786 66.1936 79.5141 66.2831C79.7491 66.373 79.9499 66.4995 80.1169 66.6615C80.284 66.8235 80.414 67.0142 80.5085 67.2324C80.6026 67.4509 80.6494 67.688 80.6494 67.9445V71.1514C80.6494 71.4079 80.6026 71.6454 80.5085 71.8635C80.414 72.0821 80.284 72.2723 80.1169 72.4348C79.9499 72.5972 79.7491 72.7234 79.5141 72.8128C79.2782 72.9027 79.0154 72.9474 78.7251 72.9474H77.1215C76.5055 72.9474 76.0309 72.7765 75.6976 72.4344C75.3638 72.0922 75.1968 71.6648 75.1968 71.1514ZM76.095 67.9445V71.1514C76.095 71.4421 76.1929 71.6863 76.3899 71.8825C76.5865 72.0795 76.8304 72.1774 77.1211 72.1774H78.7247C79.015 72.1774 79.2592 72.0795 79.4554 71.8825C79.6524 71.6859 79.7507 71.4421 79.7507 71.1514V67.9445C79.7507 67.6538 79.6524 67.41 79.4554 67.2134C79.2588 67.0168 79.015 66.9185 78.7247 66.9185H77.1211C76.8304 66.9185 76.5861 67.0168 76.3899 67.2134C76.1933 67.4104 76.095 67.6538 76.095 67.9445Z" fill="black"/>
<path d="M83.4705 66.2767V73.2038C83.4705 73.4603 83.4237 73.6978 83.3296 73.916C83.2351 74.1341 83.1051 74.3244 82.9381 74.4872C82.771 74.6496 82.5702 74.7758 82.3352 74.8652C82.0998 74.9551 81.8365 74.9998 81.5462 74.9998H81.0332V74.2303H81.5462C81.8365 74.2303 82.0808 74.132 82.2774 73.9354C82.474 73.7383 82.5723 73.4945 82.5723 73.2042V66.2771H83.4705V66.2767ZM83.4705 63.8394V65.3784H82.5727V63.8394H83.4705Z" fill="black"/>
<path d="M85.5229 66.2764H86.4207V71.151C86.4207 71.4417 86.519 71.6859 86.7156 71.8821C86.9126 72.0791 87.1561 72.177 87.4467 72.177H88.601C88.8403 72.177 89.0521 72.1171 89.2364 71.9973C89.4204 71.8779 89.5765 71.745 89.7043 71.5999C89.8499 71.429 89.9739 71.2366 90.0764 71.0227V66.2764H90.9742V72.8187H90.3971L90.2688 71.9209H90.2047C90.1022 72.1087 89.9693 72.28 89.8073 72.434C89.6706 72.5707 89.5035 72.6905 89.3069 72.7934C89.1099 72.8959 88.8749 72.947 88.601 72.947H87.4467C87.1561 72.947 86.8928 72.9023 86.6578 72.8124C86.4228 72.7225 86.222 72.5964 86.0549 72.4344C85.8878 72.2724 85.7575 72.0817 85.6634 71.8631C85.5693 71.645 85.5225 71.4079 85.5225 71.151V66.2764H85.5229Z" fill="black"/>
<path d="M98.9924 64.673V72.819H98.0305V64.673H95.208V63.8389H101.815V64.416L101.558 64.6725H98.9924V64.673Z" fill="black"/>
<path d="M107.844 72.8191H104.766C104.15 72.8191 103.675 72.6483 103.342 72.3061C103.008 71.9639 102.841 71.5361 102.841 71.0231V67.9445C102.841 67.688 102.888 67.4505 102.982 67.2324C103.076 67.0142 103.207 66.824 103.374 66.6615C103.54 66.4991 103.741 66.3725 103.977 66.2831C104.212 66.1936 104.475 66.1489 104.766 66.1489H106.177C106.467 66.1489 106.73 66.1936 106.966 66.2831C107.201 66.373 107.402 66.4995 107.569 66.6615C107.736 66.8235 107.866 67.0142 107.96 67.2324C108.054 67.4509 108.101 67.688 108.101 67.9445V69.9329H103.739V71.0231C103.739 71.3138 103.837 71.5581 104.034 71.7543C104.231 71.9509 104.475 72.0492 104.766 72.0492H107.844V72.8191ZM103.739 67.9445V69.163H107.203V67.9445C107.203 67.6538 107.105 67.41 106.908 67.2134C106.711 67.0168 106.467 66.9185 106.177 66.9185H104.766C104.475 66.9185 104.231 67.0168 104.035 67.2134C103.837 67.4104 103.739 67.6538 103.739 67.9445Z" fill="black"/>
<path d="M114.514 67.0463H111.82C111.53 67.0463 111.285 67.1446 111.089 67.3412C110.892 67.5382 110.794 67.7816 110.794 68.0723V71.0227C110.794 71.3133 110.892 71.5576 111.089 71.7538C111.286 71.9504 111.53 72.0487 111.82 72.0487H114.771V72.8182H111.82C111.204 72.8182 110.73 72.6474 110.396 72.3052C110.063 71.9631 109.896 71.5353 109.896 71.0222V68.0719C109.896 67.8154 109.942 67.5779 110.037 67.3597C110.131 67.1416 110.261 66.9513 110.428 66.7885C110.595 66.6261 110.796 66.4999 111.031 66.4105C111.267 66.321 111.53 66.2759 111.82 66.2759H114.771V66.7889L114.514 67.0463Z" fill="black"/>
<path d="M116.181 63.8394H117.079V66.2767H119.709C119.999 66.2767 120.263 66.3214 120.498 66.4112C120.733 66.5011 120.934 66.6273 121.1 66.7893C121.268 66.9521 121.397 67.1424 121.492 67.3605C121.586 67.5786 121.633 67.8157 121.633 68.0727V72.819H120.735V68.0727C120.735 67.782 120.637 67.5381 120.44 67.3415C120.243 67.1449 120 67.0466 119.709 67.0466H117.079V72.8194H116.182V63.8394H116.181Z" fill="black"/>
<path d="M129.138 72.8191H128.24V67.9445C128.24 67.6538 128.142 67.4099 127.946 67.2133C127.749 67.0167 127.505 66.9184 127.214 66.9184H126.06C125.821 66.9184 125.609 66.9783 125.425 67.0981C125.241 67.2175 125.085 67.3504 124.957 67.4956C124.811 67.6664 124.687 67.8588 124.585 68.0727V72.8191H123.687V66.2767H124.264L124.392 67.1745H124.456C124.559 66.9868 124.691 66.8155 124.853 66.6615C124.99 66.5248 125.157 66.405 125.354 66.302C125.551 66.1995 125.785 66.1484 126.06 66.1484H127.214C127.505 66.1484 127.768 66.1932 128.003 66.2826C128.238 66.3725 128.439 66.499 128.606 66.661C128.773 66.8235 128.903 67.0138 128.997 67.2319C129.091 67.4504 129.138 67.6875 129.138 67.944V72.8191Z" fill="black"/>
<path d="M131.062 71.1514V67.9445C131.062 67.688 131.109 67.4505 131.204 67.2324C131.298 67.0142 131.428 66.824 131.595 66.6615C131.762 66.4991 131.963 66.3725 132.198 66.2831C132.434 66.1936 132.697 66.1489 132.987 66.1489H134.591C134.881 66.1489 135.144 66.1936 135.38 66.2831C135.615 66.373 135.816 66.4995 135.983 66.6615C136.15 66.8235 136.28 67.0142 136.374 67.2324C136.468 67.4509 136.515 67.688 136.515 67.9445V71.1514C136.515 71.4079 136.468 71.6454 136.374 71.8635C136.28 72.0821 136.15 72.2723 135.983 72.4348C135.816 72.5972 135.615 72.7234 135.38 72.8128C135.144 72.9027 134.881 72.9474 134.591 72.9474H132.987C132.371 72.9474 131.897 72.7765 131.563 72.4344C131.23 72.0922 131.062 71.6648 131.062 71.1514ZM131.961 67.9445V71.1514C131.961 71.4421 132.059 71.6863 132.256 71.8825C132.452 72.0795 132.696 72.1774 132.987 72.1774H134.59C134.881 72.1774 135.125 72.0795 135.321 71.8825C135.518 71.6859 135.616 71.4421 135.616 71.1514V67.9445C135.616 67.6538 135.518 67.41 135.321 67.2134C135.125 67.0168 134.881 66.9185 134.59 66.9185H132.987C132.696 66.9185 132.452 67.0168 132.256 67.2134C132.059 67.4104 131.961 67.6538 131.961 67.9445Z" fill="black"/>
<path d="M138.439 71.023V63.8394H139.337V71.023C139.337 71.3137 139.436 71.558 139.632 71.7542C139.829 71.9508 140.073 72.0491 140.363 72.0491H140.556V72.8186H140.363C140.073 72.8186 139.809 72.7739 139.574 72.684C139.339 72.5941 139.139 72.468 138.971 72.306C138.804 72.144 138.674 71.9529 138.58 71.7347C138.486 71.5166 138.439 71.2799 138.439 71.023Z" fill="black"/>
<path d="M141.709 71.1514V67.9445C141.709 67.688 141.756 67.4505 141.85 67.2324C141.944 67.0142 142.075 66.824 142.242 66.6615C142.408 66.4991 142.609 66.3725 142.845 66.2831C143.08 66.1936 143.343 66.1489 143.634 66.1489H145.237C145.528 66.1489 145.791 66.1936 146.026 66.2831C146.261 66.373 146.462 66.4995 146.629 66.6615C146.796 66.8235 146.926 67.0142 147.021 67.2324C147.115 67.4509 147.162 67.688 147.162 67.9445V71.1514C147.162 71.4079 147.115 71.6454 147.021 71.8635C146.926 72.0821 146.796 72.2723 146.629 72.4348C146.462 72.5972 146.261 72.7234 146.026 72.8128C145.79 72.9027 145.528 72.9474 145.237 72.9474H143.634C143.018 72.9474 142.543 72.7765 142.21 72.4344C141.876 72.0922 141.709 71.6648 141.709 71.1514ZM142.607 67.9445V71.1514C142.607 71.4421 142.705 71.6863 142.902 71.8825C143.099 72.0795 143.343 72.1774 143.633 72.1774H145.237C145.527 72.1774 145.771 72.0795 145.968 71.8825C146.165 71.6859 146.263 71.4421 146.263 71.1514V67.9445C146.263 67.6538 146.165 67.41 145.968 67.2134C145.771 67.0168 145.527 66.9185 145.237 66.9185H143.633C143.343 66.9185 143.098 67.0168 142.902 67.2134C142.705 67.4104 142.607 67.6538 142.607 67.9445Z" fill="black"/>
<path d="M148.828 68.3934V67.945C148.828 67.6885 148.875 67.4509 148.97 67.2328C149.064 67.0147 149.194 66.8244 149.361 66.662C149.528 66.4995 149.728 66.373 149.964 66.2835C150.199 66.1941 150.462 66.1494 150.753 66.1494H152.228L152.997 64.9946H153.832V65.3794L152.997 66.2776V66.3548C153.186 66.4232 153.357 66.5257 153.511 66.6624C153.647 66.7906 153.767 66.9552 153.87 67.1564C153.973 67.3577 154.024 67.6205 154.024 67.9454V68.3939C154.024 68.6504 153.977 68.8879 153.883 69.106C153.788 69.3246 153.659 69.5148 153.491 69.6773C153.324 69.8397 153.124 69.9659 152.889 70.0553C152.653 70.1452 152.39 70.1899 152.1 70.1899H150.239C149.983 70.1899 149.855 70.3186 149.855 70.5746V70.767C149.855 71.0235 149.983 71.1518 150.239 71.1518H152.484C152.775 71.1518 153.038 71.1965 153.273 71.2864C153.508 71.3763 153.709 71.5028 153.876 71.6648C154.043 71.8268 154.173 72.0175 154.268 72.2357C154.362 72.4542 154.409 72.6913 154.409 72.9478V73.2043C154.409 73.4608 154.362 73.6984 154.268 73.9165C154.173 74.1346 154.043 74.3249 153.876 74.4878C153.709 74.6502 153.508 74.7763 153.273 74.8658C153.038 74.9556 152.775 75.0004 152.484 75.0004H150.304C149.688 75.0004 149.213 74.8295 148.88 74.4873C148.546 74.1447 148.379 73.7174 148.379 73.2043V72.9478C148.379 72.6403 148.435 72.3922 148.546 72.2036C148.657 72.0159 148.785 71.8661 148.931 71.7551C149.085 71.6353 149.264 71.5454 149.47 71.4855V71.4214C149.384 71.3876 149.311 71.3404 149.251 71.2805C149.183 71.229 149.127 71.1632 149.084 71.0813C149.041 71.0003 149.02 70.8957 149.02 70.767V70.562C149.02 70.4084 149.046 70.2823 149.097 70.184C149.149 70.0857 149.208 70.0064 149.277 69.9464C149.354 69.8865 149.44 69.8393 149.534 69.8051V69.741C149.405 69.6731 149.29 69.5743 149.187 69.4461C149.085 69.3436 148.999 69.2069 148.931 69.0356C148.862 68.8643 148.828 68.65 148.828 68.3934ZM149.277 72.9474V73.2039C149.277 73.4942 149.375 73.7385 149.572 73.9351C149.769 74.1317 150.012 74.23 150.303 74.23H152.484C152.774 74.23 153.019 74.1317 153.215 73.9351C153.412 73.738 153.51 73.4942 153.51 73.2039V72.9474C153.51 72.6571 153.412 72.4129 153.215 72.2167C153.018 72.0197 152.774 71.9218 152.484 71.9218H150.303C150.012 71.9218 149.768 72.0197 149.572 72.2167C149.375 72.4129 149.277 72.6567 149.277 72.9474ZM149.726 67.9445V68.393C149.726 68.6837 149.824 68.928 150.021 69.1242C150.218 69.3212 150.462 69.4191 150.752 69.4191H152.099C152.389 69.4191 152.634 69.3212 152.83 69.1242C153.027 68.9276 153.125 68.6837 153.125 68.393V67.9445C153.125 67.6539 153.027 67.41 152.83 67.2134C152.633 67.0168 152.389 66.9185 152.099 66.9185H150.752C150.462 66.9185 150.218 67.0168 150.021 67.2134C149.824 67.4104 149.726 67.6539 149.726 67.9445Z" fill="black"/>
<path d="M156.654 63.8394V65.3784H155.756V63.8394H156.654ZM156.654 66.2767V72.819H155.756V66.2767H156.654Z" fill="black"/>
<path d="M159.604 63.8394V65.3784H158.706V63.8394H159.604ZM159.604 66.2767V72.819H158.706V66.2767H159.604Z" fill="black"/>
<path d="M33.4897 41.0018H2.64095C1.96423 41.0018 1.35459 40.5943 1.09597 39.9699C0.837343 39.345 0.980366 38.6257 1.45838 38.1477L25.9116 13.6945L21.3724 9.1553L3.82311 26.7046C3.34468 27.1826 2.62577 27.326 2.00094 27.067C1.37653 26.8079 0.968975 26.1983 0.968975 25.522L0.969397 13.7143C0.969397 12.7908 1.71742 12.0423 2.64138 12.0423C3.56449 12.0423 4.31336 12.7908 4.31336 13.7143V21.4853L20.1906 5.60799C20.8437 4.95489 21.9023 4.95489 22.5549 5.60799L29.4589 12.5119C30.1116 13.1646 30.1116 14.2236 29.4589 14.8767L6.67725 37.6574H31.8177V30.7535H21.4643C20.5408 30.7535 19.7919 30.0051 19.7919 29.0815C19.7919 28.158 20.5404 27.4096 21.4643 27.4096H33.4897C34.4132 27.4096 35.1617 28.158 35.1617 29.0815V39.3298C35.1617 40.2534 34.4132 41.0018 33.4897 41.0018Z" fill="black"/>
<path d="M2.64073 10.045C1.7172 10.045 0.96875 9.29652 0.96875 8.37298V1.67198C0.96875 0.748446 1.71677 0 2.64073 0C3.56384 0 4.31271 0.748446 4.31271 1.67198V8.37298C4.31271 9.29652 3.56384 10.045 2.64073 10.045Z" fill="#44D62C"/>
</svg>
