<svg width="26" height="26" viewBox="0 0 26 26" fill="none" xmlns="http://www.w3.org/2000/svg">
<path fill-rule="evenodd" clip-rule="evenodd" d="M20.5834 2.71263C19.0896 2.71263 17.8786 3.92357 17.8786 5.41735C17.8786 6.91112 19.0896 8.12207 20.5834 8.12207C22.0771 8.12207 23.2881 6.91112 23.2881 5.41735C23.2881 3.92357 22.0771 2.71263 20.5834 2.71263ZM16.7881 5.41735C16.7881 3.32127 18.4873 1.62207 20.5834 1.62207C22.6794 1.62207 24.3786 3.32127 24.3786 5.41735C24.3786 7.51342 22.6794 9.21262 20.5834 9.21262C18.4873 9.21262 16.7881 7.51342 16.7881 5.41735Z" fill="#002852"/>
<path fill-rule="evenodd" clip-rule="evenodd" d="M14.625 10.8376H4.875V9.74707H14.625V10.8376Z" fill="#002852"/>
<path fill-rule="evenodd" clip-rule="evenodd" d="M18.0001 16.2471H4.875V17.3376H18.0001V16.2471Z" fill="#002852"/>
<path fill-rule="evenodd" clip-rule="evenodd" d="M2.71165 4.87536C2.71165 4.27598 3.192 3.79563 3.79137 3.79563H14.6247V2.70508H3.79137C2.5897 2.70508 1.62109 3.67369 1.62109 4.87536V22.2087C1.62109 23.4104 2.5897 24.379 3.79137 24.379H15.9998V23.2884H3.79137C3.192 23.2884 2.71165 22.8081 2.71165 22.2087V4.87536ZM22.2044 19.1687H23.295V11.3754H22.2044V19.1687Z" fill="#002852"/>
<path fill-rule="evenodd" clip-rule="evenodd" d="M24 22H15V21H24V22Z" fill="#002852"/>
<path fill-rule="evenodd" clip-rule="evenodd" d="M19 26V17H20V26H19Z" fill="#002852"/>
</svg>
