<svg width="26" height="26" viewBox="0 0 26 26" fill="none" xmlns="http://www.w3.org/2000/svg">
<g clip-path="url(#clip0_1606_8275)">
<path fill-rule="evenodd" clip-rule="evenodd" d="M25.8878 17.5862C25.8878 13 22.173 9.28516 17.5868 9.28516C13.0005 9.28516 9.28572 13 9.28572 17.5862C9.28572 22.1725 13.0005 25.8873 17.5868 25.8873C18.9052 25.8873 20.1526 25.5793 21.2585 25.0326L26 25.9994L25.0331 21.2579C25.5799 20.1521 25.8878 18.9047 25.8878 17.5862ZM17.5868 10.0808C21.7336 10.0808 25.0922 13.4394 25.0922 17.5862C25.0922 18.8253 24.792 19.9929 24.2622 21.0195L24.1979 21.1441L24.98 24.9795L21.1447 24.1974L21.0201 24.2617C19.9934 24.7914 18.8259 25.0917 17.5868 25.0917C13.4399 25.0917 10.0813 21.7331 10.0813 17.5862C10.0813 13.4394 13.4399 10.0808 17.5868 10.0808Z" fill="#002852"/>
<path fill-rule="evenodd" clip-rule="evenodd" d="M9.34804 0C4.25221 0 0.124644 4.26515 0.124644 9.53084C0.124644 11.0446 0.466815 12.4768 1.07431 13.7465L0 19.1905L5.26838 18.0804C6.49709 18.7081 7.88307 19.0617 9.34804 19.0617C9.37077 19.0617 9.39348 19.0616 9.41617 19.0614C9.36258 18.7622 9.32501 18.4575 9.30437 18.1481C7.94384 18.1409 6.66192 17.797 5.53322 17.1952L5.39483 17.1214L1.13328 18.0194L2.00228 13.6158L1.93087 13.4728C1.34226 12.294 1.00864 10.9535 1.00864 9.53084C1.00864 4.76964 4.74042 0.91346 9.34804 0.91346C13.8765 0.91346 17.559 4.63829 17.6841 9.28628C17.9834 9.28971 18.2788 9.30897 18.5697 9.34324C18.473 4.16422 14.3832 0 9.34804 0Z" fill="#002852"/>
<path d="M19.5272 21.1023C19.4545 20.8646 19.372 20.6202 19.2796 20.3693C19.1937 20.1184 19.1079 19.8675 19.022 19.6166H16.3478C16.2619 19.8675 16.1728 20.1184 16.0803 20.3693C15.9945 20.6202 15.9152 20.8646 15.8426 21.1023H14.238C14.4956 20.3627 14.7399 19.6793 14.971 19.052C15.2021 18.4247 15.4266 17.8337 15.6445 17.279C15.869 16.7244 16.0869 16.1994 16.2982 15.7042C16.5161 15.2023 16.7406 14.7137 16.9718 14.2383H18.4476C18.6721 14.7137 18.8933 15.2023 19.1112 15.7042C19.3291 16.1994 19.547 16.7244 19.7649 17.279C19.9894 17.8337 20.2172 18.4247 20.4483 19.052C20.6794 19.6793 20.9238 20.3627 21.1813 21.1023H19.5272ZM17.675 15.7933C17.642 15.8924 17.5924 16.0277 17.5264 16.1994C17.4604 16.3711 17.3844 16.5692 17.2986 16.7937C17.2128 17.0182 17.117 17.2658 17.0114 17.5366C16.9123 17.8073 16.81 18.0912 16.7043 18.3884H18.6556C18.5499 18.0912 18.4476 17.8073 18.3485 17.5366C18.2495 17.2658 18.1537 17.0182 18.0613 16.7937C17.9754 16.5692 17.8995 16.3711 17.8335 16.1994C17.7674 16.0277 17.7146 15.8924 17.675 15.7933Z" fill="#002852"/>
<path fill-rule="evenodd" clip-rule="evenodd" d="M9.06299 7.16693V6.0675H12.6584H12.9457L13.1933 6.00807L13.9658 6.59246C13.4434 7.36283 12.7152 8.28361 12.0146 8.93725V9.51436H14.1937V10.0089C13.7949 10.1876 13.4129 10.3968 13.0506 10.6336H12.0146V11.4335C11.5682 11.8379 11.166 12.2903 10.8161 12.7824V10.6336H8.72623V9.51436H10.8161V8.3555H11.2025C11.5241 8.02419 11.8658 7.58574 12.1511 7.16693H9.06299ZM10.2358 13.7266C10.0061 13.7236 9.7112 13.7155 9.41956 13.7041C9.55419 13.9733 9.71741 14.3855 9.79992 14.7039C9.92455 14.3673 10.0704 14.041 10.2358 13.7266ZM4.95251 8.64274V7.54331H5.93802C6.06717 6.85803 6.18444 6.18413 6.27975 5.57227L7.39899 5.69112C7.29453 6.27665 7.17481 6.90414 7.0464 7.54331H7.74566H7.93385L8.14185 7.5136L8.84509 7.63246C8.73852 9.43946 8.47156 10.8802 8.01684 12.0266C8.45815 12.3863 8.84408 12.7487 9.09271 13.0702L8.37956 14.0309C8.16899 13.7452 7.85707 13.418 7.49419 13.0846C7.02594 13.8519 6.43104 14.4455 5.69537 14.9025C5.5369 14.6153 5.21994 14.1894 4.98223 13.9616C5.64555 13.6143 6.18436 13.0642 6.60593 12.3335C6.4261 12.1924 6.2438 12.0552 6.06326 11.9249C6.03606 12.032 6.00916 12.1365 5.98261 12.2382L5.01194 11.7231C5.23506 10.9033 5.48808 9.79533 5.72258 8.64274H4.95251ZM6.81941 8.64274C6.66066 9.3918 6.49519 10.1333 6.33338 10.8192C6.57317 10.9723 6.82475 11.1404 7.07624 11.3173C7.35906 10.551 7.555 9.65452 7.66888 8.64274H6.81941Z" fill="#002852"/>
</g>
<defs>
<clipPath id="clip0_1606_8275">
<rect width="26" height="26" fill="white"/>
</clipPath>
</defs>
</svg>
