<svg width="22" height="22" viewBox="0 0 22 22" fill="none" xmlns="http://www.w3.org/2000/svg">
<path fill-rule="evenodd" clip-rule="evenodd" d="M20.6249 4.58635H1.37494V3.66357H20.6249V4.58635Z" fill="#B41730"/>
<path fill-rule="evenodd" clip-rule="evenodd" d="M4.12798 4.12476V18.7914C4.12798 19.2986 4.53443 19.705 5.04159 19.705H16.9583C17.4654 19.705 17.8719 19.2986 17.8719 18.7914V4.12476H18.7946V18.7914C18.7946 19.8082 17.9751 20.6278 16.9583 20.6278H5.04159C4.02479 20.6278 3.2052 19.8082 3.2052 18.7914V4.12476H4.12798Z" fill="#B41730"/>
<path fill-rule="evenodd" clip-rule="evenodd" d="M7.79466 8.24976V16.0414H6.87189V8.24976H7.79466Z" fill="#B41730"/>
<path fill-rule="evenodd" clip-rule="evenodd" d="M7.78851 1.37183H14.2113V4.12488H13.2885V2.2946H8.71129V4.12488H7.78851V1.37183Z" fill="#B41730"/>
<path fill-rule="evenodd" clip-rule="evenodd" d="M11.4613 8.24976V16.0414H10.5385V8.24976H11.4613Z" fill="#B41730"/>
<path fill-rule="evenodd" clip-rule="evenodd" d="M15.128 8.24976V16.0414H14.2052V8.24976H15.128Z" fill="#B41730"/>
</svg>
